<?xml version="1.0" encoding="UTF-8"?>
<svg width="75px" height="65px" viewBox="0 0 75 65" version="1.1" xmlns="http://www.w3.org/2000/svg" xmlns:xlink="http://www.w3.org/1999/xlink">
    <!-- Generator: Sketch 57.1 (83088) - https://sketch.com -->
    <title>Crush.pics</title>
    <desc>Created with Sketch.</desc>
    <g id="Final" stroke="none" stroke-width="1" fill="none" fill-rule="evenodd">
        <g id="validate-api-key-06A" transform="translate(-711.000000, -121.000000)" fill="#121127">
            <g id="Group-6" transform="translate(317.000000, 121.000000)">
                <g id="Crush.pics" transform="translate(394.000000, 0.000000)">
                    <path d="M74.5356547,23.6932835 L74.5356547,64.2838599 L0.0327820369,64.2838599 L0.0327820369,23.6932835 L74.5356547,23.6932835 Z M70.5617817,28.0355312 L4.00630999,28.0355312 L4.00630999,60.8855791 L22.4017348,50.667982 L37.2840458,56.2026889 L43.0555711,52.1128107 L70.5617817,60.8855791 L70.5617817,28.0355312 Z" id="Fill-1"></path>
                    <path d="M15.381498,35.0291191 C16.5773422,35.0291191 17.6158229,35.2174307 18.4969712,35.5940595 C19.3781195,35.9706882 20.0578523,36.5087212 20.53619,37.2081746 C21.0145276,37.9076281 21.2536929,38.7296229 21.2536929,39.674184 C21.2536929,40.618745 21.0145276,41.4377508 20.53619,42.131226 C20.0578523,42.8247011 19.3781195,43.3597451 18.4969712,43.7363738 C17.6158229,44.1130026 16.5773422,44.3013142 15.381498,44.3013142 L13.0779361,44.3013142 L13.0779361,47.5833484 L9.33936829,47.5833484 L9.33936829,35.0291191 L15.381498,35.0291191 Z M15.1549182,41.5035145 C15.922776,41.5035145 16.5018076,41.3450937 16.8920305,41.0282473 C17.2822533,40.7114008 17.4773618,40.2600509 17.4773618,39.674184 C17.4773618,39.088317 17.2822533,38.633978 16.8920305,38.3111534 C16.5018076,37.9883287 15.922776,37.8269188 15.1549182,37.8269188 L13.0779361,37.8269188 L13.0779361,41.5035145 L15.1549182,41.5035145 Z M26.8426629,35.0291191 L30.5812307,35.0291191 L30.5812307,47.5833484 L26.8426629,47.5833484 L26.8426629,35.0291191 Z M43.6095729,47.834433 C42.2249113,47.834433 40.9818814,47.5564492 39.880446,47.0004734 C38.7790106,46.4444977 37.91361,45.6703279 37.2842184,44.677941 C36.6548267,43.6855541 36.3401356,42.561663 36.3401356,41.3062338 C36.3401356,40.0508046 36.6548267,38.9269134 37.2842184,37.9345265 C37.91361,36.9421396 38.7790106,36.1679699 39.880446,35.6119941 C40.9818814,35.0560183 42.2249113,34.7780346 43.6095729,34.7780346 C44.8180049,34.7780346 45.9068362,34.9812915 46.8760993,35.3878114 C47.8453625,35.7943313 48.6509717,36.3801895 49.2929512,37.1454035 L46.9138626,39.1899494 C46.05789,38.209519 45.0194093,37.7193111 43.7983895,37.7193111 C43.080883,37.7193111 42.44206,37.8687647 41.8819015,38.1676765 C41.3217429,38.4665882 40.8874692,38.8880474 40.5790672,39.4320667 C40.2706653,39.976086 40.1164667,40.6008021 40.1164667,41.3062338 C40.1164667,42.0116654 40.2706653,42.6363815 40.5790672,43.1804008 C40.8874692,43.7244202 41.3217429,44.1458794 41.8819015,44.4447911 C42.44206,44.7437028 43.080883,44.8931564 43.7983895,44.8931564 C45.0194093,44.8931564 46.05789,44.4029485 46.9138626,43.4225181 L49.2929512,45.467064 C48.6509717,46.232278 47.8453625,46.8181362 46.8760993,47.2246561 C45.9068362,47.631176 44.8180049,47.834433 43.6095729,47.834433 Z M59.3757553,47.834433 C58.3057894,47.834433 57.2673088,47.7088919 56.2602821,47.4578061 C55.2532554,47.2067202 54.4350586,46.8719441 53.8056669,46.4534677 L55.0329745,43.8350142 C55.6246027,44.2056647 56.3106293,44.504572 57.0910749,44.7317449 C57.8715206,44.9589178 58.6393669,45.0725025 59.3946369,45.0725025 C60.8296499,45.0725025 61.5471456,44.7317483 61.5471456,44.0502296 C61.5471456,43.6915355 61.3425964,43.4255081 60.9334918,43.2521393 C60.5243872,43.0787705 59.8666828,42.8964371 58.9603588,42.7051336 C57.96592,42.5018736 57.1351355,42.2836713 56.4679803,42.0505202 C55.8008251,41.8173691 55.2280873,41.443735 54.7497497,40.9296069 C54.271412,40.4154787 54.0322468,39.722014 54.0322468,38.8491918 C54.0322468,38.0839778 54.2525305,37.3935021 54.6931047,36.7777439 C55.1336789,36.1619858 55.7913833,35.674767 56.6662377,35.316073 C57.5410921,34.9573789 58.6141888,34.7780346 59.8855599,34.7780346 C60.7541204,34.7780346 61.6100803,34.8706958 62.4534651,35.0560211 C63.2968499,35.2413463 64.0395209,35.5133519 64.6815004,35.872046 L63.5297195,38.5084341 C62.2709361,37.8627848 61.0499346,37.539965 59.8666783,37.539965 C59.1239961,37.539965 58.5827274,37.6445825 58.2428559,37.8538207 C57.9029844,38.0630589 57.7330512,38.3350645 57.7330512,38.6698456 C57.7330512,39.0046267 57.9344535,39.2557088 58.3372642,39.4230994 C58.7400749,39.5904899 59.3883386,39.7638561 60.2820747,39.9432032 C61.2891014,40.1464631 62.1230328,40.3646654 62.7838941,40.5978165 C63.4447553,40.8309677 64.0174931,41.2016126 64.5021247,41.7097626 C64.9867563,42.2179125 65.2290684,42.9083882 65.2290684,43.7812104 C65.2290684,44.5344679 65.0087847,45.2159764 64.5682105,45.8257563 C64.1276363,46.4355362 63.466785,46.922755 62.5856367,47.2874273 C61.7044884,47.6520995 60.6345386,47.834433 59.3757553,47.834433 Z" id="PICS"></path>
                    <path d="M7.72224014,5.76197677 C9.41152562,5.76197677 11.2230994,5.98863385 12.6295321,6.56318975 L12.9466616,6.70201047 L11.9535384,10.4775503 C11.2782285,10.2192705 10.498016,9.85086115 9.96660191,9.53391115 C9.45278662,9.22744968 8.30368996,9.05012812 7.72224014,9.05012812 C5.49030104,9.05012812 4.37467656,10.5562142 4.37467656,13.5683863 C4.37467656,16.4910783 5.49030104,17.9525881 7.72224014,17.9525881 C8.54765733,17.9525881 9.31165132,17.8480307 10.0149123,17.638588 C10.6643948,17.4452563 12.013663,16.7131933 12.7705334,16.2511081 L12.9466616,16.1416794 L12.9466616,19.917547 C12.2527176,20.3364323 10.7302508,20.852992 10.0221588,21.0135974 C9.31406684,21.1738751 8.42067007,21.2541779 7.34265866,21.2541779 C2.44743786,21.2541779 0.000172537037,18.7012063 0.000172537037,13.5949354 C0.000172537037,11.0554022 0.665820424,9.11502584 1.99746127,7.77380622 C3.32910212,6.43291435 5.23736174,5.76197677 7.72224014,5.76197677 Z M32.8140943,5.75791247 L32.8141655,14.472282 C32.8153979,15.5052869 32.8371913,16.694053 33.2136901,17.1972835 C33.6167366,17.736459 34.2589195,18.0062107 35.1405837,18.0062107 C36.3407513,18.0062107 37.2082676,17.6250185 37.7427873,16.8632897 C38.2458647,16.1460599 38.7156239,15.1939454 38.769149,13.6134503 L38.7742137,13.3096476 L38.7742137,5.75791247 L42.7477417,5.75791247 L42.7477417,20.8613828 L39.767682,20.8613828 L38.96642,19.0753843 L38.7414317,19.0753843 C38.2821381,19.7702488 37.6302932,20.3074578 36.786242,20.6860278 C35.9421908,21.0645979 34.9811595,21.2540468 33.902803,21.2540468 C32.0552764,21.2540468 30.6629025,20.7843577 29.7249912,19.8439962 C28.8317423,18.948726 28.8377205,17.1446291 28.8403153,15.4507148 L28.8405664,5.75791247 L32.8140943,5.75791247 Z M51.8905482,5.761944 C53.6389589,5.761944 55.3435595,6.09624233 57.00435,6.76432341 L57.4186349,6.93829719 L56.1246071,9.87901627 C55.336803,9.55813308 54.6004149,9.29559229 53.916133,9.0904106 C53.2315061,8.88555667 52.5327311,8.78296582 51.8201531,8.78296582 C50.5544214,8.78296582 49.9212105,9.10843774 49.9212105,9.75872605 C49.9212105,10.1241855 50.1254944,10.4404799 50.5333719,10.7079372 C50.9412495,10.9750667 51.8343012,11.3716639 53.2128721,11.897401 C54.4413358,12.37004 55.341289,12.8108857 55.9137669,13.2205935 C56.4855546,13.6306291 56.9072351,14.1029404 57.1794986,14.6375272 C57.4514169,15.172114 57.5873761,15.8096194 57.5873761,16.5490601 C57.5873761,18.0816953 57.0269758,19.2491988 55.9065203,20.0512429 C54.7857197,20.8529592 53.1096949,21.2541451 50.8777558,21.2541451 C49.7334902,21.2541451 48.7583109,21.1803977 47.9522178,21.0335584 C47.3067913,20.9158248 46.6947127,20.7542491 46.1156287,20.5481601 L45.6874967,20.3852367 L45.6874967,17.0167826 C46.4842727,17.3733923 47.3825005,17.6716596 48.3811449,17.9125679 C49.3797893,18.1531483 50.259038,18.2734385 51.0185461,18.2734385 C52.5751752,18.2734385 53.3536623,17.8457035 53.3536623,16.9902335 C53.3536623,16.6693503 53.2501401,16.4087762 53.0441309,16.2081832 C52.8377766,16.0075902 52.481315,15.7804482 51.9750914,15.5264293 C51.4685226,15.2724105 50.7935578,14.9764375 49.9495066,14.6375272 C48.7396769,14.1563663 47.8511111,13.7109319 47.2838094,13.3008963 C46.7165076,12.8911884 46.303799,12.4208438 46.0460287,11.8908457 C45.7879133,11.3605199 45.6592006,10.7079372 45.6592006,9.93244218 C45.6592006,8.60498873 46.2009669,7.5777692 47.2838094,6.85143912 C48.3669969,6.12543681 49.9025765,5.761944 51.8905482,5.761944 Z M18.9070225,5.7578797 L19.9236108,8.55569268 L20.1347961,8.55569268 C20.6223858,7.71824983 21.2811322,7.04305129 22.1110353,6.53075259 C22.9409385,6.01845389 23.8433072,5.76214066 24.8188316,5.76214066 C25.3030855,5.76214066 25.7192832,5.78990975 26.0670252,5.8456376 L26.2674525,5.88243088 L25.9441181,9.7054968 C25.5969736,9.61634437 25.174948,9.57144039 24.6780413,9.57144039 C23.3087874,9.57144039 22.2421635,9.905762 21.4781695,10.5740775 C20.7612781,11.2006232 20.0019264,11.9994383 19.9098078,13.0880036 L19.9004908,13.3096148 L19.9004908,20.86135 L15.9269629,20.86135 L15.9269629,5.7578797 L18.9070225,5.7578797 Z M64.6018348,0.0941766641 L64.6018348,7.64591181 C65.5583801,6.18440196 67.0090716,5.76191122 69.0909034,5.76191122 C70.9380849,5.76191122 72.3401209,6.2345502 73.2966662,7.17884486 C74.2532116,8.12346729 74.5354822,9.65741349 74.5354822,11.4217794 L74.5354822,11.4217794 L74.5354822,20.8614483 L70.5619542,20.8614483 L70.5619542,12.3657463 C70.5619542,10.2093719 69.5971271,9.0235135 67.9093698,9.0235135 C66.7088571,9.0235135 65.841686,9.41126101 65.3068211,10.1864283 C64.7726465,10.9619233 64.6018348,12.5158632 64.6018348,14.2536801 L64.6018348,14.2536801 L64.6018348,20.8614483 L60.6283069,20.8614483 L60.6283069,0.0941766641 L64.6018348,0.0941766641 Z" id="Combined-Shape"></path>
                </g>
            </g>
        </g>
    </g>
</svg>