<?xml version="1.0" encoding="UTF-8"?>
<svg width="20px" height="17px" viewBox="0 0 20 17" version="1.1" xmlns="http://www.w3.org/2000/svg" xmlns:xlink="http://www.w3.org/1999/xlink">
    <!-- Generator: Sketch 57.1 (83088) - https://sketch.com -->
    <title>Crush.pics</title>
    <desc>Created with Sketch.</desc>
    <g id="Symbols" stroke="none" stroke-width="1" fill="none" fill-rule="evenodd">
        <g id="WP-Shell-/-Logged-In-/-Settings" transform="translate(-9.000000, -466.000000)" fill="#FFFFFF">
            <g id="Group" transform="translate(9.000000, 465.000000)">
                <g id="Crush.pics" transform="translate(0.000000, 1.000000)">
                    <path d="M19.579909,6.22403247 L19.579909,16.8868461 L0.00861157393,16.8868461 L0.00861157393,6.22403247 L19.579909,6.22403247 Z M18.536005,7.36470555 L1.05242498,7.36470555 L1.05242498,15.9941454 L5.88475315,13.3100659 L9.79421498,14.7639883 L11.3103476,13.6896107 L18.536005,15.9941454 L18.536005,7.36470555 Z" id="Fill-1"></path>
                    <path d="M4.04059418,9.20186412 C4.35473269,9.20186412 4.6275331,9.25133203 4.85900358,9.35026934 C5.09047407,9.44920664 5.26903433,9.59054353 5.39468974,9.77428424 C5.52034515,9.95802495 5.58317191,10.1739563 5.58317191,10.4220848 C5.58317191,10.6702133 5.52034515,10.8853594 5.39468974,11.0675297 C5.26903433,11.2497 5.09047407,11.3902517 4.85900358,11.489189 C4.6275331,11.5881263 4.35473269,11.6375942 4.04059418,11.6375942 L3.43546722,11.6375942 L3.43546722,12.4997578 L2.45337594,12.4997578 L2.45337594,9.20186412 L4.04059418,9.20186412 Z M3.98107349,10.902635 C4.18278349,10.902635 4.33489038,10.8610192 4.43739874,10.7777862 C4.5399071,10.6945532 4.59116051,10.5759873 4.59116051,10.4220848 C4.59116051,10.2681823 4.5399071,10.1488312 4.43739874,10.0640278 C4.33489038,9.97922435 4.18278349,9.93682329 3.98107349,9.93682329 L3.43546722,9.93682329 L3.43546722,10.902635 L3.98107349,10.902635 Z M7.05134878,9.20186412 L8.03344007,9.20186412 L8.03344007,12.4997578 L7.05134878,12.4997578 L7.05134878,9.20186412 Z M11.4558794,12.5657157 C11.0921401,12.5657157 10.7656062,12.4926916 10.4762681,12.3466413 C10.18693,12.200591 9.95959637,11.9972229 9.79426031,11.736531 C9.62892425,11.475839 9.54625746,11.180602 9.54625746,10.850811 C9.54625746,10.52102 9.62892425,10.2257829 9.79426031,9.96509095 C9.95959637,9.704399 10.18693,9.50103092 10.4762681,9.35498061 C10.7656062,9.2089303 11.0921401,9.13590625 11.4558794,9.13590625 C11.7733246,9.13590625 12.0593517,9.18930018 12.3139693,9.29608965 C12.5685868,9.40287913 12.7802138,9.55677929 12.9488566,9.75779477 L12.3238894,10.2948803 C12.0990323,10.0373292 11.8262319,9.90855563 11.50548,9.90855563 C11.3169969,9.90855563 11.1491833,9.94781587 11.0020342,10.0263375 C10.8548851,10.1048592 10.7408049,10.2155731 10.6597903,10.3584826 C10.5787756,10.501392 10.5382689,10.6654998 10.5382689,10.850811 C10.5382689,11.0361221 10.5787756,11.2002299 10.6597903,11.3431394 C10.7408049,11.4860488 10.8548851,11.5967627 11.0020342,11.6752844 C11.1491833,11.7538061 11.3169969,11.7930663 11.50548,11.7930663 C11.8262319,11.7930663 12.0990323,11.6642927 12.3238894,11.4067416 L12.9488566,11.9438272 C12.7802138,12.1448426 12.5685868,12.2987428 12.3139693,12.4055323 C12.0593517,12.5123218 11.7733246,12.5657157 11.4558794,12.5657157 Z M15.597527,12.5657157 C15.3164557,12.5657157 15.0436553,12.5327371 14.7791176,12.4667789 C14.5145799,12.4008207 14.2996462,12.3128777 14.1343102,12.2029474 L14.4567139,11.515101 C14.6121298,11.6124679 14.7923434,11.6909884 14.9973601,11.7506648 C15.2023768,11.8103413 15.4040838,11.8401791 15.6024871,11.8401791 C15.9794533,11.8401791 16.1679336,11.7506657 16.1679336,11.5716363 C16.1679336,11.4774103 16.1142001,11.4075271 16.0067317,11.3619845 C15.8992633,11.3164419 15.7264897,11.2685444 15.4884057,11.2182906 C15.2271748,11.1648958 15.0089344,11.1075759 14.8336782,11.046329 C14.658422,10.9850821 14.5079684,10.8869314 14.382313,10.7518742 C14.2566576,10.6168169 14.1938309,10.4346493 14.1938309,10.2053661 C14.1938309,10.0043506 14.2516976,9.82296824 14.3674329,9.6612136 C14.4831681,9.49945896 14.6559417,9.37147055 14.8857588,9.27724455 C15.1155759,9.18301854 15.3974697,9.13590625 15.7314485,9.13590625 C15.9596123,9.13590625 16.184466,9.1602476 16.4060163,9.20893103 C16.6275666,9.25761447 16.8226602,9.32906812 16.991303,9.42329413 L16.6887395,10.1158518 C16.3580674,9.94624499 16.0373203,9.86144286 15.7264885,9.86144286 C15.5313919,9.86144286 15.3892051,9.88892503 15.2999236,9.9438902 C15.2106421,9.99885537 15.166002,10.070309 15.166002,10.1582533 C15.166002,10.2461976 15.2189088,10.3121548 15.3247239,10.3561269 C15.4305389,10.4000991 15.6008325,10.4456409 15.8356097,10.4927539 C16.1001474,10.5461487 16.3192144,10.6034686 16.4928173,10.6647155 C16.6664202,10.7259624 16.8168737,10.8233279 16.9441825,10.9568147 C17.0714912,11.0903015 17.1351447,11.2716839 17.1351447,11.5009672 C17.1351447,11.6988418 17.0772779,11.8778685 16.9615427,12.0380527 C16.8458074,12.1982369 16.6722072,12.3262253 16.4407367,12.4220218 C16.2092662,12.5178182 15.9281991,12.5657157 15.597527,12.5657157 Z" id="PICS"></path>
                    <path d="M2.02856955,1.51362434 C2.43819558,1.51362434 2.87519364,1.56435747 3.23058935,1.69087401 L3.40098249,1.76056353 L3.14009713,2.75236707 C2.9626987,2.68451906 2.75774324,2.58774094 2.6181451,2.50448076 C2.48317001,2.42397583 2.18131168,2.3773949 2.02856955,2.3773949 C1.44225734,2.3773949 1.14919188,2.77303144 1.14919188,3.56430451 C1.14919188,4.33207186 1.44225734,4.71599859 2.02856955,4.71599859 C2.24539992,4.71599859 2.44609491,4.6885322 2.63083584,4.63351332 C2.78486215,4.58766426 3.0887097,4.42647502 3.29262396,4.30625376 L3.40098249,4.24028763 L3.40098249,5.23217727 C3.21868907,5.34221503 2.81874945,5.47791104 2.63273945,5.52010079 C2.44672945,5.56220444 2.2120414,5.58329931 1.92885659,5.58329931 C0.64292198,5.58329931 4.53240736e-05,4.91265449 4.53240736e-05,3.57127873 C4.53240736e-05,2.90416407 0.174905599,2.394443 0.524716797,2.04211554 C0.874527995,1.68987417 1.37581225,1.51362434 2.02856955,1.51362434 Z M8.61999515,1.51255668 L8.61999515,3.74430837 C8.61999515,4.02758241 8.61899802,4.3759492 8.7249657,4.51758622 C8.83084274,4.65922324 8.99953894,4.7300848 9.23114495,4.7300848 C9.54641921,4.7300848 9.77430865,4.62994872 9.91472263,4.42984876 C10.0375849,4.25468596 10.1528822,4.02619267 10.1797868,3.66130784 L10.1856699,3.49633596 L10.1856699,1.51255668 L11.2294833,1.51255668 L11.2294833,5.48011524 L10.446646,5.48011524 L10.236161,5.01094799 L10.1770584,5.01094799 C10.0564057,5.19348324 9.88517133,5.33460365 9.66344597,5.43405092 C9.4417206,5.53349819 9.18926551,5.58326487 8.90599005,5.58326487 C8.42065987,5.58326487 8.0548946,5.45988138 7.80851294,5.21285608 C7.58950702,4.99335458 7.57627463,4.5658828 7.57603787,4.14807896 L7.57618174,3.99228078 L7.57618174,1.51255668 L8.61999515,1.51255668 Z M13.6312241,1.51361573 C14.0458639,1.51361573 14.451124,1.58518763 14.8470046,1.72823177 L15.0834074,1.82263412 L14.7434769,2.59513706 C14.5365272,2.51084366 14.343084,2.44187634 14.1633287,2.38797678 C13.9834828,2.33416332 13.7999203,2.30721354 13.6127319,2.30721354 C13.2802345,2.30721354 13.1138952,2.39271236 13.1138952,2.5635378 C13.1138952,2.65954101 13.1675589,2.74262899 13.274705,2.81288784 C13.3818511,2.88306058 13.6164485,2.98724344 13.9785878,3.12535029 C14.3012952,3.2495087 14.5377056,3.36531526 14.6880909,3.47294217 C14.8382948,3.58065519 14.9490669,3.7047275 15.0205883,3.84515909 C15.092019,3.98559069 15.1277344,4.15305817 15.1277344,4.34730322 C15.1277344,4.74991398 14.9805218,5.05660764 14.6861873,5.26729808 C14.3917621,5.47790243 13.951484,5.5832907 13.3651718,5.5832907 C13.0645826,5.5832907 12.8084109,5.56391786 12.5966568,5.52534437 C12.4553666,5.49957131 12.3201598,5.46580038 12.1909829,5.42392952 L12.001733,5.35503554 L12.001733,4.47017011 C12.2110396,4.56384857 12.4469967,4.64220097 12.7093325,4.70548559 C12.9716682,4.76868412 13.2026397,4.80028338 13.4021563,4.80028338 C13.81107,4.80028338 14.0155723,4.68792088 14.0155723,4.46319588 C14.0155723,4.37890248 13.9883778,4.31045177 13.9342609,4.25775763 C13.8800533,4.20506349 13.7864138,4.14539513 13.6534329,4.07866644 C13.5203614,4.01193776 13.3430537,3.93418808 13.1213283,3.84515909 C12.8035159,3.71876204 12.5700969,3.60175006 12.4210714,3.49403705 C12.2720458,3.38641013 12.1636306,3.26285444 12.0959165,3.12362826 C12.0281116,2.98431598 11.9942999,2.81288784 11.9942999,2.60917161 C11.9942999,2.26046041 12.1366175,1.99061821 12.4210714,1.79981722 C12.7056159,1.60910233 13.1090002,1.51361573 13.6312241,1.51361573 Z M4.96672073,1.51254807 L5.23377018,2.24751074 L5.28924684,2.24751074 C5.41733267,2.02752133 5.59037998,1.85015217 5.80838878,1.71557548 C6.02639757,1.58099879 6.26344247,1.51366739 6.51970478,1.51366739 C6.62147244,1.51366739 6.71179828,1.51833601 6.79062859,1.52769875 L6.9002457,1.54526665 L6.81530839,2.54955491 C6.72411635,2.5261353 6.61325367,2.51433939 6.48272034,2.51433939 C6.12302849,2.51433939 5.84283507,2.60216295 5.64214008,2.77772397 C5.46637332,2.93133986 5.28089021,3.12437681 5.23726579,3.38192616 L5.22769675,3.49632735 L5.22769675,5.48010663 L4.18388334,5.48010663 L4.18388334,1.51254807 L4.96672073,1.51254807 Z M16.9703755,0.0247394421 L16.9703755,2.00851872 C17.2216522,1.62459199 17.602737,1.51360712 18.1496173,1.51360712 C18.6348568,1.51360712 19.0031602,1.63776553 19.2544369,1.88582404 C19.5057135,2.13396865 19.5798637,2.53692382 19.5798637,3.00040836 L19.5798637,3.00040836 L19.5798637,5.48013246 L18.5360503,5.48013246 L18.5360503,3.24838077 C18.5360503,2.6819188 18.2825981,2.37040346 17.839238,2.37040346 C17.5238731,2.37040346 17.2960743,2.47226157 17.1555697,2.67589169 C17.0152463,2.87960791 16.9703755,3.28781527 16.9703755,3.74432559 L16.9703755,3.74432559 L16.9703755,5.48013246 L15.9265621,5.48013246 L15.9265621,0.0247394421 L16.9703755,0.0247394421 Z" id="Combined-Shape"></path>
                </g>
            </g>
        </g>
    </g>
</svg>