<?xml version="1.0" encoding="UTF-8"?>
<svg width="169px" height="150px" viewBox="0 0 169 150" version="1.1" xmlns="http://www.w3.org/2000/svg" xmlns:xlink="http://www.w3.org/1999/xlink">
    <!-- Generator: Sketch 51.3 (57544) - http://www.bohemiancoding.com/sketch -->
    <title>empty-results</title>
    <desc>Created with Sketch.</desc>
    <defs/>
    <g id="Symbols" stroke="none" stroke-width="1" fill="none" fill-rule="evenodd">
        <g id="Illustration-/-Empty-search-results" transform="translate(-44.000000, 0.000000)" fill-rule="nonzero">
            <g id="empty-results" transform="translate(44.000000, 0.000000)">
                <path d="M8,127 C5.85061101,124.512216 4.21066054,122.12597 3,120 C-15.3240042,85.5845976 56.5347925,-44.4625413 134,16 C137.060273,17.8919435 139.838954,20.2807416 142,23 C142.807272,23.1077472 143.116707,23.4067749 143,24 C230.766671,108.44028 61.2861173,189.456847 8,127 Z" id="Shape" fill="#F4F6F8"/>
                <path d="M120.6,97.885 C117.233,103.285 112.766,108.65 106.954,111.49 C102.667,113.59 92.501,121.24 75.245,118.523 C67.685,104 115.676,107.2 98.394,85.653 C90.322,75.572 111.721,71.533 109.141,62.046 C107.385,55.594 96.551,54.636 103.048,42.83 C107.222,35.241 98.078,34.636 93.209,31.916 C92.0183187,31.2626976 91.0029028,30.331671 90.249,29.202 C91.1312877,29.3135418 92.0071475,29.4710897 92.873,29.674 C97.482,30.774 102.19,33.298 106.198,35.793 C117.079,42.58 121.034,49.207 123.419,55.273 C129.194,70.022 129.124,84.224 120.6,97.885 Z" id="Shape" fill="#FFFFFF" opacity="0.4"/>
                <path d="M111.7,25.206 C111.545,25.342 111.386,25.478 111.231,25.618 C110.789,26.008 110.346,26.408 109.9,26.802 C108.778373,27.8526488 107.558819,28.7936006 106.258,29.612 C104.778431,30.1078951 103.244271,30.4228529 101.689,30.55 C99.284,29.018 93.966,29.15 94.223,25.671 C94.393,23.383 96.523,20.815 98.361,19.328 C98.524,19.196 98.686,19.075 98.841,18.961 C102.373,16.412 107.101,16.54 111.186,17.301 C115.745,18.148 114.8,22.539 111.7,25.206 Z" id="Shape" fill="#AFBADD"/>
                <path d="M111.964,25.508 C111.141,26.229 110.244,26.883 109.476,27.687 C108.521,28.278 107.776,29.127 106.829,29.764 L106.471,30.012 C106.322099,30.0953442 106.166571,30.1662517 106.006,30.224 C105.733219,30.3121023 105.452056,30.371753 105.167,30.402 C104.613644,30.4889194 104.068681,30.6227347 103.538,30.802 C102.969345,30.9099206 102.391805,30.964159 101.813,30.964 C101.73769,30.9623427 101.662975,30.9502268 101.591,30.928 C101.544047,30.914004 101.500008,30.8916453 101.461,30.862 L101.422,30.835 L101.266,30.726 C101.153975,30.6613875 101.039201,30.6016647 100.922,30.547 C100.682556,30.4333635 100.437959,30.3309196 100.189,30.24 C99.6519141,30.1416447 99.1280704,29.9812365 98.628,29.762 C98.381254,29.6293387 98.1078543,29.5538121 97.828,29.541 C97.557,29.472 97.296,29.369 97.028,29.273 C96.4845396,29.0802819 95.964046,28.8280839 95.476,28.521 C94.9434143,28.2131426 94.5028588,27.768444 94.2,27.233 C94.0075672,26.6574438 93.9497507,26.0454099 94.031,25.444 C94.0368888,24.8638301 94.1988935,24.2959502 94.5,23.8 C95.0295263,22.8105496 95.6509287,21.8730891 96.356,21 C97.0869614,20.1541139 97.9254036,19.4074499 98.85,18.779 C99.7276934,18.0616141 100.722174,17.5004427 101.79,17.12 C102.324938,16.9311905 102.874903,16.7880124 103.434,16.692 C103.995,16.609 104.564,16.632 105.12,16.567 C105.676,16.502 106.239,16.454 106.8,16.431 C107.361028,16.3794542 107.926565,16.409432 108.479,16.52 C109.035,16.587 109.596,16.598 110.15,16.678 C110.705182,16.7917267 111.25368,16.9359451 111.793,17.11 C112.078705,17.1802604 112.358541,17.2725361 112.63,17.386 C112.899032,17.5192674 113.147835,17.6899621 113.369,17.893 C113.584,18.103 113.841,18.267 114.06,18.493 C114.260249,18.7347204 114.404379,19.0178561 114.482,19.322 C114.613949,19.909159 114.631266,20.5162745 114.533,21.11 C114.48606,21.6932226 114.304651,22.2576431 114.003,22.759 C113.703,23.248 113.437,23.751 113.119,24.233 C112.782744,24.6997359 112.395335,25.1273947 111.964,25.508 Z M111.439,24.908 C111.83678,24.560916 112.209698,24.186328 112.555,23.787 C112.935242,23.4179242 113.229545,22.9696426 113.417,22.474 C113.556,21.966 113.783,21.51 113.893,21.014 C113.990493,20.5329476 113.924317,20.0331085 113.705,19.594 C113.605,19.385 113.483,19.205 113.388,18.994 C113.313377,18.7627338 113.16518,18.5622113 112.966,18.423 C112.751,18.3 112.519,18.223 112.299,18.108 C112.078098,17.9813052 111.848527,17.8703628 111.612,17.776 C111.128,17.603 110.541,17.693 110.012,17.566 C109.481835,17.4439279 108.94489,17.3534354 108.404,17.295 C107.317,17.326 106.243,17.086 105.157,17.183 C104.619305,17.2411808 104.08912,17.3551271 103.575,17.523 C103.056,17.644 102.535,17.748 102.03,17.912 C101.519406,18.0527126 101.018375,18.2260693 100.53,18.431 C100.022087,18.6047828 99.5329547,18.8292474 99.07,19.101 C98.241432,19.7899264 97.4842852,20.560474 96.81,21.401 C96.176,22.24 95.257,22.961 95.068,24.051 C94.9923576,24.5591164 94.843477,25.0535886 94.626,25.519 C94.5180561,25.7477963 94.5140469,26.0120343 94.615,26.244 C94.715,26.471 94.858,26.644 94.946,26.837 C95.1657354,27.2477543 95.4869225,27.5954488 95.879,27.847 C96.3272284,28.1125478 96.7996872,28.3348814 97.29,28.511 C97.538,28.611 97.799,28.685 98.05,28.791 C98.2785849,28.9504836 98.5431429,29.0508095 98.82,29.083 C99.370697,29.1869554 99.901986,29.3755209 100.395,29.642 C100.657,29.742 100.918,29.856 101.173,29.986 L101.553,30.186 L101.742,30.295 C101.861,30.355 101.707,30.295 101.806,30.314 C102.338095,30.2597977 102.867106,30.1786939 103.391,30.071 C103.934514,30.0013048 104.468934,29.8732318 104.985,29.689 C105.241,29.589 105.498,29.498 105.747,29.423 C105.856632,29.3963826 105.964506,29.362985 106.07,29.323 L106.415,29.123 C107.374387,28.600206 108.246504,27.9311895 109,27.14 C109.878,26.474 110.612,25.644 111.439,24.9 L111.439,24.908 Z" id="Shape" fill="#AFBADD"/>
                <g id="Group" opacity="0.4" transform="translate(94.000000, 18.000000)" fill="#7B8ED0">
                    <path d="M17.233,7.618 C16.791,8.008 16.348,8.408 15.902,8.802 C14.7803734,9.85264876 13.5608195,10.7936006 12.26,11.612 C10.7804314,12.1078951 9.24627128,12.4228529 7.691,12.55 C5.286,11.018 -0.032,11.15 0.225,7.671 C0.395,5.383 2.525,2.815 4.363,1.328 C9.22012145,1.97839922 13.7356802,4.18530399 17.233,7.618 Z" id="Shape"/>
                    <path d="M17.632,7.631 C17.1685582,8.14089938 16.6671209,8.6149248 16.132,9.049 C15.892,9.226 15.74,9.503 15.495,9.677 C15.265,9.868 14.98,9.993 14.756,10.192 L13.398,11.392 C13.1621443,11.5860877 12.9157706,11.7670288 12.66,11.934 C12.5075753,12.0348519 12.3381905,12.1073486 12.16,12.148 L11.694,12.239 C11.3967802,12.3019327 11.106406,12.3937003 10.827,12.513 C10.539675,12.6023618 10.2436889,12.6610227 9.944,12.688 C9.344,12.76 8.754,12.811 8.144,12.896 L7.901,12.914 L7.758,12.914 C7.716,12.908 7.699,12.914 7.635,12.902 C7.58823701,12.8906474 7.54318001,12.8731626 7.501,12.85 L7.477,12.84 C7.35215795,12.7819034 7.2243102,12.7304972 7.094,12.686 C6.8275729,12.5860222 6.57672585,12.4486455 6.349,12.278 C5.783,12.155 5.237,11.952 4.672,11.771 L2.972,11.201 C2.372,11.057 1.939,10.535 1.354,10.32 C0.783078394,10.008634 0.37336327,9.46708164 0.229,8.833 C0.0139232041,8.24188506 -0.0184790401,7.59976317 0.136,6.99 C0.275536455,6.39786192 0.499138755,5.82875366 0.8,5.3 C1.117,4.786 1.425,4.275 1.733,3.754 C2.358947,2.71104243 3.17547416,1.79512081 4.14,1.054 L4.196,1.013 C4.25650072,0.968829521 4.33404624,0.95516674 4.406,0.976 C5.599,1.328 6.889,1.203 8.046,1.702 C8.621,1.93 9.246,2.008 9.806,2.292 C10.0671405,2.46112493 10.3368322,2.61666497 10.614,2.758 C10.892,2.889 11.188,2.984 11.46,3.129 C11.7066376,3.31479648 11.9753526,3.46930759 12.26,3.589 C12.5597632,3.67243442 12.8405782,3.81301169 13.087,4.003 C13.5674712,4.39016607 14.0788476,4.73732674 14.616,5.041 C15.173,5.325 15.534,5.866 16.08,6.167 C16.331,6.346 16.598,6.511 16.832,6.714 C17.1423492,6.97862309 17.4119232,7.28762228 17.632,7.631 Z M16.832,7.605 C16.6320073,7.54391461 16.4509448,7.43272984 16.306,7.282 C16.078,7.091 15.887,6.857 15.671,6.648 C15.271,6.191 14.634,6.036 14.203,5.619 C13.7480916,5.22561076 13.2251856,4.91857721 12.66,4.713 C12.3761376,4.60551097 12.1223212,4.43126945 11.92,4.205 C11.6749013,4.02992232 11.399131,3.90238283 11.107,3.829 C10.83,3.718 10.602,3.503 10.333,3.371 C10.0549971,3.25713034 9.76756894,3.16779002 9.474,3.104 C8.904,2.93 8.394,2.586 7.812,2.438 C6.646,2.224 5.542,1.591 4.312,1.748 L4.624,1.657 C3.803,2.457 2.974,3.245 2.172,4.084 C1.73102971,4.4672921 1.40205851,4.96282226 1.22,5.518 C1.00605136,6.03539124 0.838720508,6.57084997 0.72,7.118 C0.580054323,7.62691793 0.551404215,8.16001459 0.636,8.681 C0.847,9.202 1.429,9.288 1.712,9.77 C1.86662486,10.0174318 2.13723167,10.1683979 2.429,10.17 C2.71445028,10.1952989 2.99260744,10.2739971 3.249,10.402 C3.7807261,10.6440501 4.33036243,10.8446473 4.893,11.002 C5.47711887,11.1564488 6.04026176,11.3814373 6.57,11.672 C6.87986911,11.7145885 7.17618593,11.8263481 7.437,11.999 C7.567,12.089 7.695,12.186 7.819,12.286 C7.719,12.269 7.796,12.293 7.862,12.286 L8.062,12.277 C8.6446661,12.2292745 9.22274074,12.1363278 9.791,11.999 C10.3680353,11.8959617 10.938649,11.7597356 11.5,11.591 C11.634,11.535 11.769,11.481 11.891,11.417 C12.0014536,11.3582409 12.1074093,11.2913918 12.208,11.217 C12.457,11.071 12.708,10.928 12.953,10.77 C13.442,10.456 13.926,10.125 14.388,9.763 C14.617,9.578 14.788,9.324 15.001,9.124 C15.214,8.924 15.481,8.778 15.686,8.565 C16.0322267,8.20271098 16.4168202,7.87914272 16.833,7.6 L16.832,7.605 Z" id="Shape"/>
                </g>
                <path d="M112.8,59.791 C112.869,81.269 100.619,78.633 81.3,94.978 C68.424,105.871 58.6,101.455 57.054,94.24 C56.8767485,93.4111051 56.8095029,92.5624661 56.854,91.716 C57.114,86.41 61.6,80.444 72,77.925 C82.837,75.3 78.8,56.7 97.645,48.4 C98.091,48.2 98.545,48.014 99.019,47.829 C99.225,47.747 99.427,47.674 99.624,47.602 C108.959,44.232 112.77,49.438 112.8,59.791 Z" id="Shape" fill="#FFBF4D"/>
                <path d="M113,59.79 C113.069707,63.3446365 112.579027,66.8880659 111.546,70.29 C110.972801,71.9807267 110.13616,73.5703109 109.067,75 L108.246,76.059 C107.965,76.405 107.625,76.697 107.317,77.019 C107.009,77.341 106.69,77.653 106.365,77.958 L105.33,78.798 C102.498558,80.9170787 99.5392893,82.8597563 96.469,84.615 C93.444,86.424 90.479,88.321 87.611,90.36 C84.72,92.381 82.072,94.67 79.239,96.816 C76.4242874,99.0015478 73.169724,100.55173 69.699,101.36 L68.384,101.596 L67.048,101.668 C66.6021683,101.693398 66.1549447,101.677665 65.712,101.621 C65.2654813,101.605003 64.8218019,101.543008 64.388,101.436 C61.7001118,100.963925 59.3540752,99.3377309 57.9688055,96.9864279 C56.5835358,94.635125 56.2981732,91.7948849 57.188,89.215 C58.3282901,85.8106656 60.6671827,82.9368948 63.769,81.129 C65.2795173,80.200707 66.8799823,79.4274449 68.546,78.821 C70.191,78.17 71.987,77.901 73.568,77.221 C75.1409863,76.4609866 76.4761536,75.285237 77.429,73.821 C78.398223,72.3608589 79.2297915,70.813887 79.913,69.2 C81.2349492,65.9219442 82.7671351,62.7326458 84.5,59.652 C86.3124079,56.5863462 88.6989781,53.8989508 91.529,51.737 C94.3873776,49.6190092 97.5920426,48.0138006 101,46.993 C102.714294,46.4642363 104.525072,46.3251822 106.3,46.586 C108.104371,46.9072297 109.693923,47.9642747 110.688,49.504 C111.636543,51.026104 112.272886,52.7216612 112.56,54.492 C112.844581,56.2438262 112.991697,58.0152289 113,59.79 Z M112.6,59.79 C112.590935,58.0386427 112.445159,56.2906655 112.164,54.562 C111.8873,52.8456121 111.272766,51.2011903 110.356,49.724 C109.421608,48.2701274 107.922789,47.272244 106.221,46.971 C104.507579,46.7190322 102.759423,46.8557404 101.106,47.371 C97.7508252,48.3884676 94.5940974,49.9715662 91.772,52.052 C88.9793762,54.1809449 86.6225243,56.8273956 84.83,59.847 C83.0983683,62.9117673 81.5661886,66.0850192 80.243,69.347 C79.5479538,70.9819585 78.70231,72.5487096 77.717,74.027 C76.7254907,75.5398439 75.33963,76.7531635 73.709,77.536 C72.027,78.253 70.295,78.495 68.658,79.136 C67.0133481,79.731332 65.4330015,80.4911848 63.941,81.404 C60.8992403,83.1625479 58.6050087,85.9721013 57.49,89.304 C56.4115182,92.6697601 57.3470206,96.3558723 59.9,98.8 C61.1797869,99.9632799 62.7635066,100.739362 64.467,101.038 C64.8858587,101.139478 65.3141969,101.196791 65.745,101.209 C66.1734882,101.262111 66.6057853,101.277837 67.037,101.256 L68.337,101.192 L69.619,100.967 C73.0384986,100.185133 76.2482937,98.6725138 79.028,96.533 C81.817,94.419 84.471,92.04 87.384,90.048 C90.264,88.004 93.248,86.11 96.272,84.297 C99.3149265,82.5302459 102.251634,80.5865766 105.067,78.476 L106.088,77.649 L107.021,76.729 C107.321,76.414 107.658,76.129 107.933,75.79 L108.733,74.756 C109.780215,73.3603754 110.600017,71.8078478 111.162,70.156 C112.18179,66.7977601 112.667052,63.3000241 112.6,59.791 L112.6,59.79 Z M57.313,84.5 C57.4910062,84.08987 57.7525724,83.7213614 58.081,83.418 L58.206,83.307 C58.262,83.282 58.336,83.273 58.362,83.223 L58.595,82.989 C58.743,82.826 58.986,82.755 59.139,82.601 L59.976,81.578 C60.1161498,81.4037251 60.3000932,81.2698226 60.509,81.19 C60.6808427,81.0516777 60.8407402,80.8991395 60.987,80.734 L61.467,81.374 C61.311,81.516 61.167,81.674 61.007,81.807 C60.847,81.94 60.607,81.983 60.481,82.158 C60.172,82.442 59.868,82.731 59.589,83.043 C59.461,83.211 59.399,83.437 59.21,83.543 C59.117,83.599 58.993,83.628 58.903,83.689 C58.838,83.702 58.835,83.769 58.813,83.818 L58.68,83.911 C58.5860656,83.9627759 58.5018183,84.0304445 58.431,84.111 C58.374,84.2 58.387,84.343 58.314,84.419 C58.197,84.593 58.106,84.784 57.976,84.947 L57.313,84.5 Z" id="Shape" fill="#FFBF4D"/>
                <path d="M64.4,78.655 C66.2286284,77.7421043 68.1464119,77.0199615 70.123,76.5 C72.0182358,76.1126991 73.7396326,75.1286432 75.035,73.692 C75.3620507,73.3317205 75.6678991,72.952749 75.951,72.557 C76.2641444,72.1760095 76.5470072,71.7711079 76.797,71.346 C77.2946021,70.483776 77.7537199,69.5999077 78.173,68.697 L80.745,63.238 C82.310802,59.4834418 84.5169318,56.0294274 87.265,53.03 C88.6776794,51.5533771 90.2867601,50.2780914 92.047,49.24 C93.7655886,48.1482482 95.5753232,47.2070791 97.456,46.427 L97.75,47.171 C95.9116197,47.9219915 94.1459072,48.8398273 92.475,49.913 C90.7793654,50.9406398 89.2134579,52.1684537 87.811,53.57 C85.071382,56.4668739 82.873281,59.8314248 81.321,63.504 C80.506,65.332 79.831,67.227 78.913,69.04 C78.4592903,69.9536053 77.9586212,70.8431273 77.413,71.705 C77.113,72.125 76.886,72.582 76.595,73.005 C76.2935706,73.4263467 75.9645145,73.8272273 75.61,74.205 C74.9063189,74.9702551 74.0878649,75.6213748 73.184,76.135 C72.7396848,76.4067731 72.2761191,76.6457417 71.797,76.85 C71.315854,77.0315779 70.8247191,77.1854957 70.326,77.311 C68.4011403,77.8050498 66.5322809,78.4960285 64.749,79.373 L64.4,78.655 Z" id="Shape" fill="#FFBF4D"/>
                <path d="M112.8,59.791 C112.869,81.269 100.619,78.633 81.3,94.978 C68.424,105.871 58.6,101.455 57.054,94.24 C56.8767485,93.4111051 56.8095029,92.5624661 56.854,91.716 C59.3106595,89.7217093 62.2154562,88.3547663 65.318,87.733 C69.7,87.133 74.293,87.475 78.696,86.591 C87.083,84.909 97.783,76.226 96.01,66.654 C95.139,61.954 93.598,57.98 95.31,53.203 C95.8994787,51.5178306 96.6830836,49.9069939 97.645,48.403 C98.091,48.203 98.545,48.017 99.019,47.832 C99.225,47.75 99.427,47.677 99.624,47.605 C108.959,44.232 112.77,49.438 112.8,59.791 Z" id="Shape" stroke="#FFAA10" stroke-width="0.5" fill="#FFAA10" stroke-linejoin="round"/>
                <path d="M36.113,81.659 C35.218836,83.0087417 34.1392601,84.2259998 32.906,85.275 C31.7542484,86.271739 30.5265271,87.17715 29.234,87.983 C28.7494402,88.2892896 28.2438484,88.5609659 27.721,88.796 C24.132,90.441 19.983,90.581 16.628,92.786 C13.977,94.53 12.055,97.964 8.447,97.676 C4.892,97.392 3.171,94.253 4.192,91.023 C5.584,86.598 11.669,87.108 14.812,84.495 C16.4385694,82.9930067 17.9432987,81.3642208 19.312,79.624 C19.63,79.25 19.963,78.879 20.292,78.524 C21.5392693,77.058328 23.0819027,75.8724733 24.819,75.044 C25.3623636,74.8053228 25.930495,74.6275721 26.513,74.514 C30.667,73.7 40.077,75.49 36.113,81.659 Z" id="Shape" fill="#AFBADD"/>
                <path d="M36.449,81.875 C35.391587,83.3726392 34.1445338,84.7269188 32.739,85.904 C31.307415,87.0369328 29.8042996,88.0764206 28.239,89.016 C27.4363233,89.4686351 26.574797,89.807861 25.679,90.024 C24.791,90.234 23.943,90.55 23.079,90.801 C21.3449711,91.1526059 19.6524423,91.6844957 18.029,92.388 C17.2539947,92.7787536 16.5373981,93.2758945 15.9,93.865 C15.5466667,94.1236667 15.195,94.393 14.845,94.673 C14.498,94.956 14.254,95.352 13.896,95.635 C13.2161837,96.2628519 12.4689686,96.8135374 11.668,97.277 C10.833705,97.7471231 9.89548588,98.0021263 8.938,98.019 C7.98188591,98.0531769 7.03668188,97.8067077 6.219,97.31 C5.82196579,97.0579294 5.45318032,96.7639068 5.119,96.433 C4.76576129,96.1165508 4.46382768,95.7471459 4.224,95.338 C3.80828653,94.4891041 3.64217731,93.5396113 3.745,92.6 C3.80552724,91.6768204 4.05213735,90.775418 4.47,89.95 C4.92335912,89.1333768 5.59419079,88.4583913 6.408,88 C7.19237268,87.5376985 8.02802718,87.1685339 8.898,86.9 C10.6058476,86.4030233 12.2501971,85.7093763 13.798,84.833 C14.5196758,84.3468249 15.1774826,83.7719998 15.756,83.122 C16.341,82.463 16.995,81.857 17.584,81.183 C18.784,79.862 19.769,78.324 21.126,77.076 C21.819081,76.4632131 22.5448083,75.888373 23.3,75.354 C24.0838684,74.8325843 24.9664092,74.4775939 25.893,74.311 C26.7896518,74.0729898 27.7171233,73.9718478 28.644,74.011 C29.5596731,74.0188057 30.4740254,74.082256 31.382,74.201 C32.2792766,74.4012219 33.1583158,74.675838 34.01,75.022 C34.9119649,75.3076325 35.7253377,75.8203811 36.372,76.511 C37.0323547,77.2459513 37.3962131,78.1999659 37.393,79.188 C37.315735,80.150176 36.9905015,81.0759202 36.449,81.875 Z M35.776,81.442 C36.2456541,80.752544 36.5548925,79.9666342 36.681,79.142 C36.7321731,78.7447131 36.6946045,78.3410217 36.571,77.96 C36.4190006,77.584274 36.1829661,77.2483523 35.881,76.978 C35.2473362,76.4249226 34.537397,75.965887 33.773,75.615 C32.9551691,75.3203213 32.1040495,75.1278621 31.239,75.042 C29.5401769,74.6581957 27.7790692,74.6408097 26.073,74.991 C25.271115,75.2933873 24.4954939,75.6612973 23.754,76.091 C22.9887206,76.5110303 22.2928611,77.04667 21.691,77.679 C20.4082585,78.9115142 19.201696,80.2209335 18.078,81.6 C17.5694069,82.3545812 16.993017,83.0611776 16.356,83.711 C15.7194669,84.3987457 14.9877023,84.991768 14.183,85.472 C12.547,86.479 10.667,86.561 9.045,87.308 C7.426,88 5.811,88.8 4.97,90.238 C4.49900125,90.9451842 4.24237586,91.7734001 4.231,92.623 C4.27073705,93.4485929 4.50584619,94.2529678 4.917,94.97 C5.06587144,95.3518095 5.26171175,95.7135934 5.5,96.047 C5.78442217,96.3520223 6.14310299,96.5780498 6.541,96.703 C7.30960525,96.9761847 8.11211823,97.1424075 8.926,97.197 C10.592,97.285 12.05,96.192 13.356,95.039 C13.666,94.724 14.089,94.52 14.407,94.201 C14.725,93.882 15.044,93.556 15.378,93.241 C16.1135908,92.6815398 16.9099623,92.2068702 17.752,91.826 C21.061,90.236 24.778,89.968 27.897,88.316 L29.066,87.721 C29.4473333,87.491 29.8243333,87.2546667 30.197,87.012 C30.949876,86.538678 31.65075,85.987297 32.288,85.367 C32.9701978,84.8057524 33.6124225,84.1976103 34.21,83.547 C34.7834018,82.885077 35.306842,82.1814744 35.776,81.442 Z" id="Shape" fill="#AFBADD"/>
                <g id="Group" opacity="0.4" transform="translate(24.000000, 73.000000)" fill="#7B8ED0">
                    <path d="M12.113,8.659 C11.218836,10.0087417 10.1392601,11.2259998 8.906,12.275 C7.75424836,13.271739 6.5265271,14.17715 5.234,14.983 C4.7494402,15.2892896 4.24384844,15.5609659 3.721,15.796 C3.502,12.513 4.084,9.408 2.806,6.03 C2.25630266,4.64770445 1.59338284,3.31316857 0.824,2.04 C1.36736357,1.80132282 1.93549495,1.62357215 2.518,1.51 C6.667,0.7 16.077,2.49 12.113,8.659 Z" id="Shape"/>
                    <path d="M12.449,8.875 C12.1854778,9.27080227 11.8933655,9.64680486 11.575,10 C11.226,10.324 11.049,10.8 10.66,11.088 C9.892,11.657 9.368,12.465 8.655,13.093 C8.30551803,13.4128608 7.91832555,13.6888991 7.502,13.915 C7.102,14.167 6.802,14.559 6.391,14.788 C5.6,15.288 4.691,15.634 3.867,16.113 C3.77189462,16.1685084 3.65532485,16.1727551 3.5564326,16.124314 C3.45754034,16.0758728 3.38944061,15.9811682 3.375,15.872 L3.368,15.815 C3.30895974,15.516264 3.26987331,15.2139288 3.251,14.91 C3.30502724,14.6110707 3.33113966,14.3077649 3.329,14.004 C3.26925798,13.7079071 3.25442515,13.4045083 3.285,13.104 L3.312,12.21 C3.34085183,11.6189547 3.33851525,11.0267992 3.305,10.436 C3.214,9.857 3.451,9.242 3.249,8.672 C3.09917394,8.10251265 2.99484548,7.52201842 2.937,6.936 C2.77510486,6.36786613 2.55807332,5.81691414 2.289,5.291 C2.05537316,4.74687434 1.80390374,4.21058412 1.535,3.683 C1.2995012,3.13511119 0.999733,2.61714665 0.642,2.14 C0.612136979,2.10035962 0.599256886,2.05047385 0.606196873,2.00133124 C0.61313686,1.95218863 0.639327619,1.90782049 0.679,1.878 L0.699,1.865 L0.739,1.843 C2.0573019,1.10332532 3.58283286,0.819309418 5.079,1.035 C5.81995061,1.00625024 6.56199891,1.02796709 7.3,1.1 C8,1.364 8.777,1.332 9.472,1.647 C9.79584343,1.8414502 10.1322513,2.01416409 10.479,2.164 C10.653,2.237 10.824,2.316 10.995,2.399 C11.153563,2.50517194 11.3048963,2.62176206 11.448,2.748 C11.723,3.005 12.148,3.097 12.382,3.429 C12.6352309,3.73288548 12.8396728,4.07429668 12.988,4.441 C13.1611119,4.79811877 13.2868418,5.17631708 13.362,5.566 C13.3883369,5.95878044 13.3436213,6.3530911 13.23,6.73 C13.1740512,7.11166293 13.08505,7.48774358 12.964,7.854 C12.8141696,8.2049153 12.6421552,8.54593804 12.449,8.875 Z M11.776,8.442 C11.9613023,8.15273853 12.1282962,7.85214951 12.276,7.542 C12.4533225,7.25356284 12.5851993,6.93955426 12.667,6.611 C12.6857385,6.28686582 12.6730123,5.96167843 12.629,5.64 C12.6379196,5.32222801 12.5630816,5.00770153 12.412,4.728 C12.2383567,4.45812374 12.018292,4.22113104 11.762,4.028 C11.515,3.839 11.403,3.446 11.079,3.306 C10.7541653,3.19264739 10.4516208,3.02343908 10.185,2.806 C9.88180998,2.62832978 9.54371752,2.51847532 9.194,2.484 C8.54539567,2.21220455 7.86163457,2.03343687 7.163,1.953 C6.472254,1.79511175 5.77003659,1.69245425 5.063,1.646 C4.70733997,1.6614066 4.35401584,1.71130736 4.008,1.795 C3.661,1.854 3.315,1.861 2.975,1.914 C2.29432431,2.01539647 1.62067105,2.15934518 0.958,2.345 L1.111,1.875 C1.31720262,2.4443516 1.6125505,2.97732795 1.986,3.454 C2.31539809,3.96494848 2.60620566,4.49976699 2.856,5.054 C3.126,5.603 3.15,6.248 3.397,6.81 C3.621,7.374 4.049,7.934 3.865,8.589 C3.739,9.218 4.251,9.781 4.157,10.405 C4.14,11.017 4.112,11.62 4.115,12.22 L4.092,13.12 C4.10571717,13.4162895 4.07470221,13.7129544 4,14 C3.98390928,14.2967998 4.00744989,14.5944203 4.07,14.885 C4.07,15.18 4.031,15.475 4.014,15.772 L3.601,15.525 C4.43807164,15.1585532 5.23498137,14.7064795 5.979,14.176 C6.37105356,13.9347868 6.74808217,13.6699651 7.108,13.383 C7.42897533,13.0532856 7.77391787,12.7477842 8.14,12.469 C8.504,12.193 8.865,11.906 9.214,11.611 C9.58401956,11.3371 9.90375376,11.0011254 10.159,10.618 C10.404,10.227 10.82,9.986 11.045,9.581 C11.291,9.2 11.549,8.831 11.776,8.442 Z" id="Shape"/>
                </g>
                <path d="M142.19,22.61 C142.168994,22.6270474 142.145351,22.6405578 142.12,22.65 C140.213218,23.5295376 138.37769,24.5559626 136.63,25.72 C133.53,28.04 132.65,33.77 128.27,34.08 C125.06,34.3 122.55,32.02 123.07,28.68 C123.6,25.29 127.19,24.28 129.39,22.22 C131.41,20.32 132.51,17.8 133.85,15.43 C136.752508,17.6772365 139.536262,20.0738021 142.19,22.61 Z" id="Shape" fill="#AFBADD"/>
                <path d="M115.855,34.033 C100.450447,20.3534751 78.322379,17.3004036 59.7890796,26.2974282 C41.2557801,35.2944528 29.9670661,54.5697633 31.1868478,75.1353115 C32.4066295,95.7008597 45.8946918,113.506613 65.3615716,120.249774 C84.8284514,126.992936 106.44048,121.345557 120.12,105.941 C129.157429,95.8707718 133.791823,82.6042713 132.990689,69.0971324 C132.189555,55.5899935 126.019447,42.9643285 115.855,34.033 Z M125.555,83.671 C123.379,90.563 120.38,96.966 115.543,102.413 C111.318,107.166 106.01,111.713 99.804,113.532 C95.826,114.702 91.784,116.498 87.67,117.139 C84.7528025,117.494541 81.8079423,117.565542 78.877,117.351 C68.8888289,116.765923 59.3889815,112.833105 51.91,106.187 C43.21,98.458 38.967,88.808 37.464,77.571 C36.9033568,74.0759272 36.8444293,70.5187248 37.289,67.007 C38.514,58.517 42.435,48.971 48.136,42.554 C58.036,31.402 75.953,23.819 90.822,27.915 C93.8219475,28.5864852 96.7748864,29.4529923 99.662,30.509 C104.022,32.372 108.239,35.647 111.769,38.78 C115.337181,41.8547892 118.432768,45.438621 120.956,49.416 C121.732302,50.566137 122.422517,51.7720901 123.021,53.024 C124.116127,55.5466158 124.937816,58.1793082 125.472,60.877 C126.944,67.954 127.766,76.676 125.559,83.671 L125.555,83.671 Z" id="Shape" fill="#FFFFFF"/>
                <path d="M121.3,106.986 C116.72236,112.141021 111.157276,116.325545 104.934,119.292 C103.368,119.992 101.734,120.523 100.165,121.214 L95.3,122.892 C93.643,123.333 91.963,123.706 90.287,124.12 L85.161,124.861 C78.2322824,125.354613 71.2771894,124.385997 64.747,122.018 C58.234379,119.671983 52.2356987,116.091178 47.08,111.472 L43.417,107.833 C42.292,106.533 41.217,105.184 40.127,103.856 C39.132,102.456 38.227,100.985 37.283,99.556 C36.428,98.068 35.683,96.518 34.877,95.004 C34.177,93.441 33.577,91.828 32.931,90.245 C32.395,88.62 31.953,86.963 31.463,85.325 C31.095,83.655 30.829,81.963 30.518,80.287 L30.075,75.187 C30.104,73.487 30.088,71.781 30.075,70.081 C30.228,68.387 30.331,66.687 30.508,64.996 C30.808,63.321 31.094,61.64 31.472,59.984 C31.966,58.356 32.396,56.707 32.946,55.1 C33.602,53.531 34.205,51.94 34.922,50.4 C35.737,48.91 36.477,47.38 37.331,45.918 C38.288,44.518 39.152,43.057 40.104,41.655 L43.25,37.655 C47.7842813,32.5795051 53.2816804,28.4553511 59.423,25.522 C60.9505251,24.788623 62.5123162,24.1288664 64.103,23.545 C65.68496,22.9319869 67.285746,22.3687103 68.903,21.856 C70.5331184,21.3589399 72.1892724,20.9516616 73.864,20.636 C75.5472426,20.3535296 77.2432558,20.1532919 78.946,20.036 C92.7988394,19.0996038 106.458042,23.6923465 116.931,32.808 L120.552,36.477 C121.665,37.784 122.717,39.143 123.797,40.477 C124.79,41.877 125.686,43.339 126.63,44.766 C127.495,46.241 128.286,47.766 129.115,49.266 C129.851,50.81 130.475,52.409 131.158,53.981 C131.73,55.594 132.203,57.244 132.728,58.881 C133.128,60.547 133.451,62.232 133.812,63.909 C134.047,65.609 134.174,67.322 134.319,69.027 L134.258,74.163 L133.709,79.263 C133.398,80.94 133.138,82.631 132.78,84.298 C132.299,85.936 131.9,87.598 131.387,89.229 C129.223558,95.7530525 125.795956,101.78695 121.3,106.986 Z M118.945,104.895 C123.213064,100.025675 126.486014,94.3674872 128.579,88.24 C129.079,86.709 129.46,85.14 129.91,83.595 C130.244,82.021 130.483,80.425 130.779,78.844 C130.929,77.244 130.966,75.628 131.069,74.028 L130.9,69.218 C130.68,67.628 130.484,66.042 130.332,64.448 C130.014,62.881 129.737,61.302 129.393,59.738 C128.925,58.207 128.499,56.661 128.006,55.138 C127.397,53.657 126.85,52.144 126.195,50.679 C123.445279,44.8328193 119.550001,39.5980832 114.74,35.285 C110.039421,30.7974814 104.40156,27.4090266 98.233,25.364 C92.0772613,23.3476583 85.5881187,22.5478085 79.127,23.009 C77.5220393,23.1258498 75.9237824,23.3214185 74.338,23.595 C72.748,23.84 71.166,24.118 69.57,24.395 C66.3755847,24.9794906 63.2931545,26.063437 60.436,27.607 C54.7563083,30.6711332 49.6786626,34.7388062 45.449,39.613 C44.431,40.848 43.366,42.049 42.326,43.278 C41.3773888,44.5763067 40.4705908,45.904654 39.607,47.261 C38.824,48.661 38.129,50.118 37.398,51.549 C36.756,53.021 36.243,54.549 35.642,56.037 C35.134,57.559 34.742,59.12 34.28,60.658 C33.93,62.225 33.696,63.817 33.346,65.389 C33.135,66.982 32.999,68.589 32.846,70.189 C32.826,70.989 32.846,71.8 32.846,72.605 L32.929,75.019 L33.651,79.789 C34.019,81.352 34.34,82.92 34.651,84.489 L35.31,86.802 C35.526,87.574 35.691,88.367 35.948,89.128 C36.521,90.628 37.041,92.158 37.664,93.648 C38.388,95.086 39.036,96.581 39.886,97.955 C40.804,99.287 41.671,100.655 42.626,101.955 C43.64,103.213 44.592,104.529 45.619,105.789 L48.973,109.34 C53.7499421,113.838713 59.4721442,117.212653 65.721,119.215 C71.9310342,121.210519 78.4653948,122.000033 84.972,121.541 L89.817,121.095 C91.409,120.785 93.017,120.514 94.603,120.177 C96.154,119.698 97.747,119.329 99.272,118.764 C100.753,118.085 102.259,117.464 103.701,116.725 C109.489036,113.788874 114.662526,109.773497 118.943,104.895 L118.945,104.895 Z M125.834,108.6 C128.734,110.947 131.598,113.34 134.274,115.943 C135.62,117.235 136.874,118.627 138.249,119.89 C139.599,121.178 141.044,122.359 142.5,123.527 C143.956,124.695 145.4,125.872 146.767,127.146 C148.134,128.42 149.467,129.723 150.816,131.01 C151.483,131.663 152.216,132.247 152.909,132.865 L155.109,134.602 C155.851,135.17 156.526,135.815 157.23,136.426 C157.934,137.037 158.63,137.661 159.295,138.313 C160.035424,138.963745 160.114696,140.088992 159.472819,140.837117 C158.830943,141.585243 157.70672,141.677917 156.951,141.045 L156.902,141.008 C156.154,140.446 155.432,139.856 154.715,139.259 C153.998,138.662 153.261,138.088 152.573,137.459 C151.867,136.85 151.193,136.205 150.511,135.569 C149.829,134.933 149.195,134.243 148.488,133.635 C145.679,131.183 142.888,128.714 140.252,126.063 C138.926,124.748 137.597,123.437 136.191,122.213 C134.785,120.989 133.339,119.813 131.927,118.591 C130.476,117.418 129.227,116.019 127.842,114.767 C126.4557,113.511916 124.985641,112.352574 123.442,111.297 C122.613573,110.744715 122.389715,109.625427 122.942,108.797 C123.494285,107.968573 124.613573,107.744715 125.442,108.297 C125.487333,108.327667 125.531,108.361 125.573,108.397 L125.834,108.6 Z" id="Shape" fill="#081140"/>
                <path d="M168,138.818 C167.969083,140.429179 167.378679,141.979429 166.33,143.203 C165.23,144.663 163.062,148.286 161.27,148.825 C158.577,149.633 154.77,146.079 152.953,144.725 C148.278,141.241 148.547,141.701 144.277,137.743 C139.967,133.743 135.748,129.654 131.499,125.593 C129.199,123.4 122.246,119.71 124.181,115.459 C125.157,113.349 129.054,110.33 130.881,108.966 C136.713,104.605 148.026,119.149 151.867,122.559 C156.422,126.603 156.395,126.207 160.949,130.251 C163.78,132.769 167.878,135.226 168,138.818 Z" id="Shape" fill="#081140"/>
                <path d="M168.194,138.811 C168.186423,140.145918 167.776593,141.447547 167.018,142.546 C166.281866,143.606049 165.536169,144.659426 164.781,145.706 C164.041273,146.785897 163.155903,147.758424 162.15,148.596 C161.589037,149.011047 160.897985,149.21148 160.202,149.161 C159.531818,149.112303 158.87595,148.942915 158.266,148.661 C155.837,147.579 153.974,145.716 151.901,144.236 C149.782316,142.763673 147.753687,141.165815 145.826,139.451 C142.049,135.951 138.377,132.351 134.659,128.787 C132.857555,126.95615 130.93343,125.250197 128.9,123.681 C127.864527,122.908263 126.881685,122.067401 125.958,121.164 C124.988152,120.279226 124.263099,119.159096 123.853,117.912 C123.678233,117.26682 123.686543,116.585724 123.877,115.945 C124.080127,115.317198 124.404225,114.735249 124.831,114.232 C125.655536,113.2343 126.568952,112.31352 127.56,111.481 C128.533,110.633 129.553,109.845 130.572,109.058 C131.598911,108.189878 132.963923,107.833916 134.284,108.09 C135.567601,108.345188 136.79439,108.830686 137.905,109.523 C139.016141,110.188662 140.076683,110.935353 141.078,111.757 C143.064328,113.403855 144.954753,115.163066 146.74,117.026 L149.413,119.812 C150.298,120.744 151.166,121.694 152.113,122.542 C154.007,124.285 156.024,125.864 158.024,127.493 C159.024,128.31 159.982,129.169 160.939,130.03 C161.896,130.891 162.905,131.675 163.899,132.497 C164.917449,133.303462 165.852157,134.210364 166.689,135.204 C167.567289,136.212095 168.095321,137.477617 168.194,138.811 Z M167.801,138.824 C167.710703,137.572531 167.217011,136.38409 166.394,135.437 C165.576347,134.46145 164.661645,133.571543 163.664,132.781 C162.679,131.962 161.657,131.175 160.679,130.324 L157.749,127.824 C155.769,126.199 153.759,124.563 151.849,122.837 C149.931,121.077 148.261,119.128 146.466,117.286 C144.708253,115.416002 142.831689,113.661358 140.848,112.033 C139.859822,111.223712 138.813318,110.488385 137.717,109.833 C136.644989,109.166036 135.46132,108.698192 134.223,108.452 C132.997979,108.189408 131.719938,108.495682 130.747,109.285 C129.716874,110.048116 128.72059,110.855887 127.761,111.706 C126.793995,112.534148 125.904023,113.448219 125.102,114.437 C124.267759,115.348134 123.931673,116.609577 124.202,117.815 C124.581768,119.007849 125.268776,120.079747 126.194,120.923 C127.112516,121.809586 128.089006,122.634074 129.117,123.391 C130.170359,124.144156 131.171023,124.96841 132.112,125.858 L134.897,128.529 C138.697,131.996 142.297,135.686 146.081,139.161 C147.024,140.034 147.981,140.881 149.004,141.661 C150.027,142.441 151.084,143.172 152.118,143.938 C154.224,145.419 156.098,147.254 158.432,148.279 C159.558,148.767 160.932,149.066 161.946,148.294 C162.943924,147.505151 163.807154,146.559515 164.502,145.494 L166.702,142.337 C167.411812,141.30251 167.794355,140.07858 167.8,138.824 L167.801,138.824 Z" id="Shape" fill="#081140"/>
                <path d="M139.752,111.062 C138.90487,112.155152 137.994656,113.197925 137.026,114.185 C135.992856,115.107783 135.042556,116.119318 134.186,117.208 C133.326969,118.292694 132.394084,119.316795 131.394,120.273 C130.918572,120.77636 130.477259,121.310881 130.073,121.873 C129.637515,122.410003 129.176658,122.925923 128.692,123.419 C128.368913,123.797039 127.800539,123.841587 127.4225,123.5185 C127.044461,123.195413 126.999913,122.627039 127.323,122.249 L127.331,122.238 C128.158886,121.125976 129.075555,120.082893 130.072,119.119 C130.983,118.077 131.903,117.043 132.914,116.089 C133.907458,115.123171 134.839922,114.096524 135.706,113.015 C136.711729,112.059357 137.61649,111.002797 138.406,109.862 C138.568556,109.583511 138.867335,109.4129 139.189792,109.414433 C139.512248,109.415966 139.809391,109.589411 139.969292,109.869433 C140.129192,110.149455 140.127556,110.493511 139.965,110.772 C139.945964,110.804606 139.924923,110.835999 139.902,110.866 L139.752,111.062 Z M154.739,146.176 C155.414487,145.019497 156.148783,143.89836 156.939,142.817 C157.811192,141.778421 158.603459,140.675265 159.309,139.517 C160.026105,138.350827 160.866245,137.264947 161.815,136.278 C162.282,135.778 162.686,135.215 163.115,134.669 C163.565277,134.139307 164.056453,133.64579 164.584,133.193 C164.941811,132.875099 165.485848,132.892864 165.822156,133.233433 C166.158464,133.574001 166.16938,134.118219 165.847,134.472 L165.811,134.513 C164.950246,135.492387 164.069392,136.453925 163.169,137.397 C162.344,138.419 161.558,139.479 160.694,140.497 C159.84728,141.535607 159.083273,142.638987 158.409,143.797 C157.570958,144.859676 156.837236,146.000612 156.218,147.204 C155.995153,147.648865 155.453865,147.828847 155.009,147.606 C154.564135,147.383153 154.384153,146.841865 154.607,146.397 L154.739,146.176 Z" id="Shape" fill="#FFC757"/>
                <path d="M36.834,64.691 C37.274,61.912 38.22,59.282 38.776,56.518 C39.669383,53.8570623 40.8159679,51.287962 42.2,48.846 C42.8699578,47.6126651 43.616763,46.422653 44.436,45.283 C45.2361098,44.1302895 46.1138079,43.0334174 47.063,42 C47.994,40.952 48.907,39.9 49.932,38.947 L53.061,36.18 C54.1428977,35.306098 55.2647713,34.482879 56.423,33.713 C57.604,32.985 58.623,31.985 59.842,31.313 L61.642,30.25 L63.504,29.289 C64.768,28.699 66.004,28.03 67.326,27.558 C67.995,27.348 68.649,27.097 69.326,26.93 C70.003,26.763 70.675,26.559 71.339,26.337 C72.6784198,25.9270383 74.0433698,25.6056771 75.425,25.375 C76.116,25.257 76.818,25.217 77.514,25.148 C78.206,25.042 78.898,24.948 79.596,24.886 C80.988,24.705 82.396,24.657 83.796,24.609 C84.0834795,24.5884951 84.3591725,24.7267714 84.5146518,24.9694463 C84.670131,25.2121212 84.6805237,25.5203727 84.5417425,25.7729685 C84.4029613,26.0255644 84.1372077,26.1820956 83.849,26.181 L83.749,26.181 C82.4,26.201 81.049,26.217 79.71,26.366 C78.3621652,26.4598371 77.0280583,26.696155 75.73,27.071 C75.079,27.248 74.404,27.303 73.749,27.464 L71.771,27.897 C70.4598842,28.2312585 69.1665576,28.6317725 67.896,29.097 C65.3005257,29.9115179 62.8336434,31.0899113 60.569,32.597 C60.0124011,32.9862716 59.4196759,33.3211447 58.799,33.597 C58.477354,33.7153701 58.1687312,33.8664981 57.878,34.048 C57.6,34.248 57.334,34.457 57.062,34.66 C55.979,35.486 55.038,36.482 53.975,37.308 C53.444,37.723 52.866,38.088 52.357,38.533 L50.933,39.96 C50.433,40.414 50.007,40.939 49.513,41.401 C49.0158367,41.8555584 48.5646583,42.3579842 48.166,42.901 C47.4423806,44.0406752 46.6280773,45.1201705 45.731,46.129 C45.3066883,46.6583269 44.9311564,47.2249718 44.609,47.822 C44.209,48.374 43.844,48.948 43.456,49.512 C42.1080632,51.88702 41.0626086,54.4213738 40.344,57.056 C39.8037707,58.3095104 39.3981637,59.6168385 39.134,60.956 C38.8463433,62.2819389 38.596575,63.6158149 38.385,64.956 C38.3423068,65.2339526 38.1545706,65.4680149 37.89251,65.5700178 C37.6304493,65.6720206 37.3338774,65.6264675 37.11451,65.4505178 C36.8951425,65.274568 36.7863068,64.9949526 36.829,64.717 L36.834,64.691 Z M119.739,98.951 L117.885,101.26 C117.288798,102.042825 116.638543,102.782966 115.939,103.475 L114.887,104.505 C114.54,104.852 114.226,105.232 113.887,105.588 C113.220333,106.310667 112.528,107.016 111.81,107.704 C108.812325,110.363164 105.297504,112.374211 101.486,113.611 L95.945,115.325 C94.0861918,115.94955 92.1897386,116.455894 90.267,116.841 C89.296,117.011 88.325,117.218 87.339,117.328 C86.3598943,117.428465 85.3762458,117.478199 84.392,117.477 C83.412,117.477 82.436,117.445 81.462,117.394 C80.488,117.343 79.52,117.349 78.539,117.275 C76.5865894,117.132495 74.647737,116.84267 72.739,116.408 C70.8109194,116.050306 68.904821,115.582879 67.03,115.008 C63.2961543,113.752941 59.7348992,112.033459 56.43,109.89 C54.817,108.75 53.33,107.454 51.83,106.19 C50.3276307,104.915406 48.9316736,103.520453 47.656,102.019 C47.0411081,101.249916 46.4485283,100.463256 45.879,99.66 C45.279,98.88 44.718,98.074 44.16,97.26 C43.0483564,95.6300734 42.0493639,93.9261062 41.17,92.16 C41.0438852,91.9086637 41.0614367,91.6091379 41.216043,91.3742511 C41.3706493,91.1393643 41.638822,91.0048015 41.919543,91.0212511 C42.2002641,91.0377007 42.4508853,91.2026636 42.577,91.454 L42.577,91.46 L42.593,91.492 C43.4156052,93.2053535 44.3548112,94.8602406 45.404,96.445 C45.9265717,97.2369002 46.4779404,98.0094169 47.057,98.761 C47.657,99.499 48.309,100.188 48.946,100.887 C50.233,102.272 51.507,103.674 52.903,104.965 C54.3024572,106.250545 55.7908143,107.435817 57.357,108.512 C60.4328881,110.769388 63.8687777,112.4897 67.519,113.6 C69.36,114.051 71.056,115.067 72.973,115.27 C74.855,115.589 76.761,115.661 78.642,115.805 C79.575,115.915 80.542,116.046 81.498,116.069 C82.454,116.092 83.409,116.079 84.358,116.048 C85.307,116.037 86.248,115.966 87.181,115.901 C88.1160839,115.85071 89.0423923,115.694033 89.942,115.434 C90.848,115.175 91.731,114.834 92.654,114.598 C93.569,114.335 94.51,114.125 95.441,113.86 C96.385,113.634 97.287,113.274 98.216,112.973 C99.141,112.7 100.147,112.499 101.042,112.251 C104.748,111.302 107.875,108.894 110.742,106.434 C111.483,105.834 112.215,105.221 112.922,104.576 C113.642228,103.944689 114.304227,103.249891 114.9,102.5 C116.192,101.075 117.276,99.515 118.459,98.028 L118.509,97.965 C118.779343,97.6250688 119.274069,97.5686568 119.614,97.8390001 C119.953931,98.1093435 120.010343,98.6040687 119.74,98.944 L119.739,98.951 Z M38.218,84.414 C37.9781081,83.9260864 37.8245061,83.4003211 37.764,82.86 C37.8039042,82.314485 37.7180317,81.7670907 37.513,81.26 C37.3136524,80.7544524 37.221374,80.21304 37.242,79.67 C37.2121417,79.3997741 37.1381595,79.1362759 37.023,78.89 C36.9457434,78.6299648 36.9020557,78.3611178 36.893,78.09 C36.8690074,77.6501193 37.1669567,77.2575228 37.5970708,77.1622726 C38.0271848,77.0670225 38.4630312,77.2971175 38.627,77.706 L38.674,77.816 C38.878783,78.3027536 38.9792766,78.8270232 38.969,79.355 C39.094289,79.8644355 39.1613846,80.3864393 39.169,80.911 C39.1713436,81.4384982 39.2773532,81.9603915 39.481,82.447 C39.5436285,82.7021909 39.5824614,82.9626389 39.597,83.225 C39.6564975,83.488774 39.7786021,83.7343552 39.953,83.941 C40.1888821,84.2088796 40.2463779,84.5899256 40.1000383,84.9154784 C39.9536988,85.2410312 39.6305478,85.4509723 39.2736194,85.4523771 C38.916691,85.4537818 38.5918975,85.2463908 38.443,84.922 L38.218,84.414 Z" id="Shape" fill="#081140"/>
                <path d="M23.3,120.627 C21.577,124.18 18.186,124.86 14.708,125.243 C12.174164,125.641305 9.6635483,126.175407 7.187,126.843 C5.30192387,124.646384 3.66128204,122.251308 2.294,119.7 C4.149,119.2 6.123,118.618 6.66,118.393 C11.613,116.293 14.396,111.556 19.152,109.275 C20.527,108.612 23.589,108.125 24.907,109.2 C26.988,110.9 23.607,119.983 23.3,120.627 Z" id="Shape" fill="#AFBADD"/>
                <path d="M78.475,55.995 C78.075,55.157 77.637,54.335 77.217,53.495 C76.8273325,52.6396923 76.3561551,51.8239226 75.81,51.059 C75.256,50.299 74.743,49.514 74.22,48.732 C73.9478693,48.3485473 73.6516035,47.9828076 73.333,47.637 C73.026,47.282 72.745,46.907 72.442,46.55 C72.2994145,46.3636198 72.32399,46.0989583 72.498455,45.9420183 C72.67292,45.7850782 72.9386973,45.7885528 73.109,45.95 L73.127,45.969 C73.793778,46.6612528 74.3962564,47.4126772 74.927,48.214 C75.5117671,48.9743079 76.0462385,49.7720066 76.527,50.602 C76.998,51.436 77.506,52.246 77.995,53.072 C78.239,53.486 78.424,53.931 78.634,54.363 C78.844,54.795 79.064,55.223 79.31,55.645 C79.3912779,55.7841549 79.3921435,55.9561007 79.3122708,56.0960669 C79.232398,56.2360331 79.0839215,56.3227556 78.9227708,56.3235669 C78.7616201,56.3243782 78.6122779,56.2391549 78.531,56.1 L78.514,56.068 L78.475,55.995 Z M75.468,60.055 C72.4735877,58.8647549 69.819865,56.9527005 67.743,54.489 C67.2247292,53.8518612 66.7858426,53.1540751 66.436,52.411 C66.0134311,51.6145337 65.9097496,50.6871199 66.146,49.817 C66.3135412,49.3799023 66.5932577,48.9946455 66.957,48.7 C67.3152803,48.4308164 67.7230248,48.2347593 68.157,48.123 C69.0177492,47.883794 69.9364159,47.9695742 70.738,48.364 C70.9584669,48.4765662 71.1548128,48.6311291 71.316,48.819 C71.4672701,48.9944304 71.5940888,49.1895363 71.693,49.399 C71.9233592,49.8444501 71.9779666,50.360186 71.846,50.844 C71.5038428,51.7113661 70.7836146,52.3744919 69.891,52.644 C68.3089024,53.1640318 66.6071202,53.1971268 65.006,52.739 C63.4154556,52.3152425 61.9590239,51.4934186 60.774,50.351 C59.6201244,49.1812118 58.7748253,47.7431725 58.314,46.166 C58.2587803,46.0104176 58.2929816,45.8370975 58.4031629,45.7141537 C58.5133442,45.5912099 58.681895,45.5382928 58.8425756,45.5761985 C59.0032561,45.6141043 59.1303846,45.7367744 59.174,45.896 C60.0328885,48.7968404 62.3163311,51.0565128 65.226,51.885 C66.6492621,52.2790085 68.1575634,52.2407179 69.559,51.775 C70.1875303,51.6088657 70.7131788,51.1784248 71,50.595 C71.0816383,50.3175906 71.0537194,50.0194311 70.922,49.762 C70.8576914,49.6158362 70.7735685,49.4792205 70.672,49.356 C70.5795726,49.2444423 70.4656455,49.1526205 70.337,49.086 C69.216,48.468 67.295,48.816 66.896,50.086 C66.747246,50.7567891 66.8542281,51.4589482 67.196,52.055 C67.5304778,52.7248543 67.944826,53.3517489 68.43,53.922 C69.4070317,55.1011001 70.5281175,56.1529789 71.767,57.053 C73.0165235,57.9391062 74.3712157,58.6666696 75.8,59.219 C76.0220409,59.3150922 76.1287026,59.5692703 76.0417246,59.7950372 C75.9547466,60.0208041 75.705119,60.1377197 75.476,60.06 L75.468,60.055 Z M74.6,63.581 C73.388,63.236 72.132,62.986 70.878,62.627 C70.2528679,62.4354456 69.6317368,62.2310691 69.015,62.014 C68.4086908,61.8156445 67.7925357,61.6487553 67.169,61.514 C65.9000109,61.2427 64.648968,60.8933698 63.423,60.468 C62.805,60.253 62.175,60.068 61.553,59.83 C60.9276332,59.5805108 60.3295037,59.26754 59.768,58.896 C59.6309886,58.811864 59.549271,58.6610244 59.5536293,58.500301 C59.5579875,58.3395777 59.6477596,58.1933883 59.7891293,58.116801 C59.9304989,58.0402137 60.1019886,58.044864 60.239,58.129 L60.266,58.145 C61.3596877,58.741462 62.5045938,59.2387816 63.687,59.631 C64.897,60.013 66.147,60.305 67.387,60.694 C68.641,61.054 69.869,61.5 71.1,61.774 C71.723,61.92 72.339,62.11 72.967,62.274 C73.595,62.438 74.23,62.583 74.877,62.727 C75.1200053,62.7822285 75.2722285,63.0239947 75.217,63.267 C75.1617715,63.5100053 74.9200053,63.6622285 74.677,63.607 L74.652,63.601 L74.6,63.581 Z" id="Shape" fill="#22266D"/>
                <path d="M78.527,55.973 C78.313,55.561 78.255,55.073 77.869,54.739 C77.617,54.345 77.481,53.89 77.261,53.475 C77.041,53.06 76.861,52.624 76.683,52.182 C76.583,51.967 76.433,51.782 76.334,51.567 C76.2398891,51.3495393 76.1174998,51.145445 75.97,50.96 C75.834,50.767 75.732,50.552 75.6,50.36 C75.506,50.138 75.233,50.039 75.119,49.832 C74.819,49.466 74.528,49.097 74.219,48.74 C73.9860803,48.3296453 73.7116412,47.9442912 73.4,47.59 C73.1633762,47.1801279 72.8539802,46.8168503 72.487,46.518 C72.3362263,46.3625318 72.3400319,46.1142737 72.4955,45.9635 C72.6509682,45.8127263 72.8992263,45.8165319 73.05,45.972 L73.086,46.008 C73.3898897,46.3830545 73.7243701,46.7322521 74.086,47.052 C74.386,47.424 74.606,47.862 74.891,48.246 C75.1032161,48.6790801 75.3922275,49.0700756 75.744,49.4 C75.952,49.548 75.87,49.893 76.086,50.035 C76.2722003,50.1926288 76.4414496,50.3692513 76.591,50.562 C77.1067912,51.374753 77.5421807,52.2358194 77.891,53.133 C78.0830885,53.5744375 78.3282267,53.9908366 78.621,54.373 C78.7944684,54.8248452 79.0086846,55.2599718 79.261,55.673 C79.3406793,55.8676764 79.252942,56.0905753 79.0619437,56.1787077 C78.8709453,56.2668402 78.6444164,56.1889534 78.548,56.002 L78.527,55.973 Z" id="Shape" fill="#FFC657"/>
                <path d="M78.12,56.164 C77.6824911,55.1862141 77.1783033,54.2396508 76.611,53.331 C76.1288864,52.4016182 75.5909005,51.5023036 75,50.638 C74.7,50.192 74.413,49.738 74.133,49.274 C73.859,48.798 73.533,48.424 73.241,47.974 C72.93,47.547 72.558,47.15 72.241,46.716 C72.1107571,46.5541236 72.0602645,46.3422351 72.1035064,46.1390176 C72.1467483,45.9358001 72.2791344,45.7628257 72.464,45.668 C72.6449733,45.5779886 72.8554471,45.5681907 73.044,45.641 C73.1345942,45.6782711 73.2163568,45.7341422 73.284,45.805 L73.428,45.948 C73.795553,46.3478324 74.1413836,46.767102 74.464,47.204 C74.764,47.665 75.19,48.013 75.47,48.478 C76.075,49.368 76.77,50.234 77.314,51.145 C77.778,52.11 78.4,52.979 78.842,53.989 C79.0371271,54.4824506 79.2743346,54.9582039 79.551,55.411 C79.6720319,55.5916035 79.7202597,55.8113081 79.686,56.026 C79.6441499,56.2637779 79.4971549,56.4699384 79.286,56.587 C78.9516895,56.7697131 78.5357098,56.6994183 78.28,56.417 C78.2160268,56.339885 78.1622511,56.2548523 78.12,56.164 Z M78.831,55.825 C78.87,55.906 78.876,55.907 78.876,55.907 C78.8816682,55.9120387 78.8885681,55.9154887 78.896,55.917 C78.9096647,55.9215059 78.9246776,55.9188787 78.936,55.91 C78.9468594,55.9030279 78.9533016,55.8909014 78.953,55.878 C78.9537799,55.8726952 78.9537799,55.8673048 78.953,55.862 L78.912,55.788 L78.519,55.07 C78.379,54.839 78.212,54.605 78.089,54.381 C77.817,53.929 77.67,53.433 77.389,52.963 C77.143,52.484 76.863,52.026 76.602,51.557 C76.1181605,50.6115051 75.5341427,49.7207271 74.86,48.9 C74.485,48.519 74.407,47.909 74.01,47.562 C73.656,47.174 73.258,46.83 72.897,46.456 C72.851,46.409 72.816,46.356 72.775,46.302 C72.753,46.271 72.783,46.289 72.78,46.278 C72.777,46.267 72.78,46.247 72.78,46.256 C72.78,46.265 72.79,46.271 72.791,46.256 C73.145,46.656 73.417,47.112 73.791,47.511 C74.201077,47.8848045 74.5340051,48.3352766 74.771,48.837 C74.8953168,49.0735398 75.0380926,49.2999081 75.198,49.514 L75.581,50.223 C75.8463045,50.6955057 76.1471727,51.1471423 76.481,51.574 C76.8030414,52.0168945 77.094389,52.4813132 77.353,52.964 C77.7895623,53.9454413 78.282725,54.9007145 78.83,55.825 L78.831,55.825 Z M75.489,60 C74.0354776,59.341654 72.6294287,58.5831628 71.281,57.73 C69.9708231,56.8038617 68.7961805,55.699563 67.791,54.449 C67.2746327,53.817169 66.8429834,53.1206134 66.507,52.377 C66.1103354,51.5987701 66.0293754,50.6974625 66.281,49.861 C66.4427549,49.4504806 66.7030809,49.086093 67.039,48.8 C67.3797848,48.5379536 67.7735915,48.3533354 68.193,48.259 C69.018538,48.07141 69.8829774,48.1628478 70.651,48.519 C71.0401306,48.7311201 71.3434358,49.0718966 71.509,49.483 C71.7093093,49.8839934 71.7503958,50.3459493 71.624,50.776 C71.3095231,51.5858547 70.6561131,52.2173382 69.836,52.504 C68.284481,53.0552175 66.6043937,53.1342108 65.008,52.731 C63.4351848,52.2793128 62.0007632,51.4403893 60.836,50.291 C60.5646727,49.9893335 60.3115577,49.671771 60.078,49.34 C59.8296297,49.0215109 59.6018337,48.6874991 59.396,48.34 C58.9823434,47.6456224 58.6383376,46.912056 58.369,46.15 C58.3193401,46.0185263 58.3435928,45.8705463 58.4326225,45.7618027 C58.5216521,45.653059 58.6619329,45.6000725 58.8006225,45.6228027 C58.939312,45.6455328 59.0553401,45.7405263 59.105,45.872 L59.105,45.878 L59.118,45.914 C59.547449,47.3546517 60.3494465,48.6564747 61.443,49.688 C61.9720069,50.2012374 62.5497329,50.6617436 63.168,51.063 C63.8040564,51.4488657 64.4924912,51.7408779 65.212,51.93 C66.6334925,52.4006431 68.175078,52.3574673 69.568,51.808 C69.899,51.669 70.186,51.483 70.494,51.337 C70.784043,51.1942817 70.9913283,50.9249217 71.055,50.608 C71.1225841,50.0140918 70.8220713,49.4388018 70.296,49.155 C69.711141,48.8165121 69.0103616,48.7413118 68.367,48.948 C67.7246884,49.0545773 67.1873754,49.4944047 66.956,50.103 C66.8769054,50.7625207 66.9620998,51.4313662 67.204,52.05 C67.3377341,52.3978121 67.5158775,52.7268732 67.734,53.029 C67.907,53.363 68.134,53.674 68.339,53.995 C69.3004093,55.2006769 70.4583225,56.2355301 71.764,57.056 C72.9795741,57.997564 74.3345108,58.7438588 75.78,59.268 C75.9703762,59.3561821 76.0582552,59.5780835 75.9798752,59.7727004 C75.9014953,59.9673174 75.6843534,60.0663747 75.486,59.998 L75.489,60 Z" id="Shape" fill="#FFC657"/>
                <path d="M75.321,60.421 C72.2478252,59.1418173 69.5052147,57.1815397 67.3,54.688 C66.7628978,54.0234645 66.3119875,53.2936754 65.958,52.516 C65.5452525,51.6845176 65.4390203,50.7340928 65.658,49.832 C65.9527476,48.9102118 66.6610679,48.178959 67.573,47.855 C68.4236487,47.5237689 69.3581581,47.4743443 70.239,47.714 C70.7002772,47.832481 71.1262693,48.0602256 71.481,48.378 C71.6443526,48.5495026 71.7857687,48.7406326 71.902,48.947 C72.0421335,49.1399972 72.1492563,49.3549186 72.219,49.583 C72.3680343,50.0547679 72.3620768,50.5618636 72.202,51.03 C72.0393999,51.473045 71.7680955,51.8681385 71.413,52.179 C70.7299197,52.7334287 69.9122052,53.0970874 69.043,53.233 C68.2124809,53.3850518 67.3634322,53.4076526 66.526,53.3 C64.8588998,53.1251185 63.2624086,52.5343858 61.883,51.582 C60.1876943,50.3552697 58.9137136,48.6338063 58.236,46.654 C58.140896,46.4372304 58.0850292,46.2052986 58.071,45.969 C58.101004,45.6513292 58.3478537,45.3972463 58.6645258,45.3580828 C58.9811979,45.3189192 59.2825095,45.5052098 59.389,45.806 L59.589,46.376 C59.7320742,46.7459798 59.8966892,47.1072648 60.082,47.458 C60.8433336,48.8493171 61.9779035,50.0005106 63.358,50.782 C64.7208549,51.5552974 66.283761,51.9035385 67.846,51.782 C68.6022523,51.7347314 69.3389151,51.5220618 70.004,51.159 C70.2841839,51.0139436 70.5064438,50.7775719 70.634,50.489 C70.6969778,50.2112382 70.6191882,49.9202752 70.426,49.711 C69.759,48.792 67.311,49.046 67.193,50.411 C67.1927977,51.1459818 67.4213696,51.862803 67.847,52.462 C68.2759419,53.1221481 68.7550214,53.748328 69.28,54.335 C70.3120145,55.5483331 71.5346725,56.5855659 72.9,57.406 C73.5800346,57.821861 74.2884452,58.1894326 75.02,58.506 L75.571,58.734 L75.849,58.841 C76.0008853,58.8885998 76.1384118,58.9735223 76.249,59.088 C76.5100577,59.3754037 76.5382512,59.804939 76.317,60.124 C76.0925576,60.4399215 75.6818131,60.5624026 75.321,60.421 Z M75.614,59.69 C75.637038,59.7008458 75.6645221,59.6941241 75.679954,59.6738697 C75.6953859,59.6536154 75.6945717,59.625333 75.678,59.606 C75.738,59.62 75.458,59.519 75.278,59.445 L74.705,59.202 C73.9471281,58.8645342 73.2122161,58.4777032 72.505,58.044 C71.7944761,57.6111964 71.1175613,57.1254891 70.48,56.591 C69.8265946,56.0746689 69.209472,55.5140129 68.633,54.913 C68.0447928,54.3044688 67.5302533,53.628821 67.1,52.9 C66.5836596,52.1320632 66.3309609,51.217083 66.38,50.293 C66.4635275,49.7777385 66.7345604,49.3115334 67.141,48.984 C67.5199191,48.6880181 67.9667838,48.4913977 68.441,48.412 C68.8991289,48.3259133 69.3701886,48.3364721 69.824,48.443 C70.0564133,48.4956144 70.2809732,48.5783117 70.492,48.689 C70.7372046,48.8033095 70.9424083,48.9886548 71.081,49.221 C71.4171689,49.6471615 71.5222391,50.2113993 71.362,50.73 C71.1657252,51.1902789 70.8138785,51.5669035 70.368,51.794 C69.5945146,52.1885907 68.7506919,52.4264787 67.885,52.494 C66.1744857,52.6374184 64.4604184,52.2624771 62.966,51.418 C61.5188124,50.5155082 60.3380299,49.2439493 59.545,47.734 C59.3379782,47.3671812 59.1526597,46.9885304 58.99,46.6 L58.768,46.024 C58.76,46.015 58.741,46.017 58.745,46.024 C58.645,45.711 59.082,46.866 59.36,47.485 C59.6656104,48.1949088 60.0662763,48.8599941 60.551,49.462 C61.0564493,50.0449996 61.6372101,50.5581675 62.278,50.988 C63.5554319,51.8776846 65.0397412,52.4247891 66.589,52.577 C67.3526087,52.6209902 68.118728,52.5706097 68.87,52.427 C69.600726,52.3267032 70.2942231,52.04325 70.886,51.603 C71.156467,51.3897135 71.3607378,51.1039425 71.475,50.779 C71.5751839,50.4654309 71.5727318,50.1280795 71.468,49.816 C71.4200267,49.650846 71.3457402,49.4945067 71.248,49.353 C71.1691517,49.1961862 71.0721536,49.0491786 70.959,48.915 C70.7001049,48.66871 70.384444,48.4900988 70.04,48.395 C68.648,47.933 66.735,48.566 66.362,50.028 C66.2211415,50.7679075 66.3368438,51.5337294 66.69,52.199 C67.0259616,52.9067026 67.4492574,53.5695301 67.95,54.172 C69.965435,56.6634 72.6119763,58.5688821 75.614,59.69 Z M74.617,63.527 C74.0242062,63.2857899 73.397261,63.1390078 72.759,63.092 C72.126,62.985 71.52,62.744 70.891,62.578 C70.261559,62.3984725 69.647309,62.1694245 69.054,61.893 C68.76,61.769 68.442,61.714 68.144,61.593 C67.8456569,61.4719948 67.535707,61.381858 67.219,61.324 C66.906,61.249 66.602,61.138 66.289,61.059 C65.989,60.931 65.633,61.017 65.327,60.907 C64.696,60.762 64.057,60.632 63.427,60.462 C62.834,60.173 62.192,60.025 61.591,59.744 C61.035,59.372 60.391,59.196 59.803,58.844 C59.6237025,58.7312734 59.5659796,58.4967428 59.6724764,58.3136762 C59.7789731,58.1306097 60.0113809,58.0648591 60.198,58.165 L60.239,58.188 C60.7598511,58.5271767 61.3289332,58.7857584 61.927,58.955 C62.506,59.181 63.068,59.485 63.676,59.673 C64.2620658,59.9351895 64.8838684,60.108755 65.521,60.188 C65.856,60.174 66.1,60.514 66.437,60.497 C66.7632251,60.5092547 67.0879374,60.5477118 67.408,60.612 C67.7031256,60.7526698 68.0165052,60.8512952 68.339,60.905 C68.659,60.978 68.952,61.136 69.275,61.205 C69.5975615,61.2271239 69.9083187,61.3351984 70.175,61.518 C70.3175113,61.5913813 70.469685,61.6442381 70.627,61.675 L71.068,61.882 C71.6831676,62.0815701 72.3176831,62.2156463 72.961,62.282 C73.5850925,62.4792717 74.2193415,62.6428412 74.861,62.772 C74.9958678,62.8114778 75.0994295,62.919908 75.1326746,63.0564458 C75.1659197,63.1929836 75.1237973,63.3368858 75.0221746,63.4339458 C74.9205519,63.5310058 74.7748678,63.5664778 74.64,63.527 L74.617,63.527 Z" id="Shape" fill="#FFC657"/>
                <path d="M74.492,63.96 C73.117,63.621 71.783,63.185 70.366,62.96 C68.966,62.52 67.719,62.088 66.338,61.76 C64.9558441,61.4035016 63.6031815,60.9411357 62.292,60.377 C61.964,60.234 61.627,60.15 61.287,60.015 C60.9518239,59.87485 60.6270091,59.7111059 60.315,59.525 L59.857,59.236 L59.63,59.081 C59.5211345,59.0036426 59.4376217,58.895772 59.39,58.771 C59.2946078,58.5191509 59.352156,58.2349094 59.538,58.04 C59.7310094,57.8448351 60.0221008,57.7841746 60.277,57.886 C60.8871982,58.2401733 61.5194977,58.55482 62.17,58.828 C62.8246261,59.07915 63.4950757,59.2869326 64.177,59.45 L68.265,60.532 C68.938,60.756 69.587,61.032 70.265,61.2 C70.943,61.368 71.625,61.5 72.303,61.722 C72.641,61.822 72.977,61.951 73.317,62.037 L74.347,62.259 L74.862,62.37 C74.9942544,62.3889987 75.1210138,62.4356816 75.234,62.507 C75.4356664,62.6428813 75.565819,62.8619919 75.5886729,63.1040885 C75.6115268,63.3461851 75.5246761,63.5857808 75.352,63.757 C75.1244528,63.9776249 74.794187,64.055583 74.492,63.96 Z M74.708,63.203 C74.85,63.246 74.819,63.172 74.819,63.148 C74.8146534,63.1405476 74.8084524,63.1343466 74.801,63.13 C74.768415,63.1191528 74.7349588,63.1111233 74.701,63.106 L74.182,62.989 C73.493,62.82 72.791,62.689 72.105,62.554 C70.76,62.224 69.338,61.76 68.025,61.321 C66.690131,60.8489734 65.3275743,60.4592422 63.945,60.154 C63.22,60.054 62.656,59.528 61.955,59.363 C61.617,59.243 61.269,59.138 60.933,58.998 L60.427,58.784 L60.176,58.667 L60.056,58.599 C60.008,58.57 59.977,58.553 59.997,58.563 C60.059,58.553 60.003,58.494 60.007,58.522 L60.012,58.522 L60.222,58.651 L60.666,58.898 C61.2565498,59.2419239 61.8877773,59.5106743 62.545,59.698 C63.2253411,59.8605924 63.8864099,60.0952517 64.517,60.398 C64.8414895,60.5302897 65.1758462,60.6369494 65.517,60.717 L66.512,61.057 C67.853,61.482 69.312,61.73 70.618,62.157 C71.9615937,62.5779338 73.3269094,62.926106 74.708,63.2 L74.708,63.203 Z" id="Shape" fill="#FFC657"/>
                <path d="M66.1,41.906 C66.136,41.613 65.867,41.33 65.649,41.433 C65.5399736,41.5169894 65.4691002,41.6411231 65.4521917,41.7777067 C65.4352831,41.9142903 65.4737463,42.0519594 65.559,42.16 C65.741,42.351 66.059,42.199 66.1,41.906" id="Shape" fill="#FFC757"/>
                <path d="M65.707,41.857 C65.669,41.825 65.548,41.88 65.685,41.842 C65.7020288,41.8387398 65.7187542,41.8340567 65.735,41.828 C65.756,41.801 65.765,41.752 65.78,41.76 C65.807,41.747 65.818,41.728 65.815,41.722 C65.812,41.716 65.671,41.714 65.661,41.787 C65.661,41.941 65.861,42.006 65.781,41.869 C65.731,41.792 65.704,41.887 65.752,41.908 C65.762,41.901 65.752,41.867 65.707,41.857 C65.3725118,41.7767041 65.1568574,41.4516697 65.2128868,41.1122725 C65.2689162,40.7728752 65.5775974,40.5344008 65.9201456,40.5658735 C66.2626938,40.5973461 66.5227529,40.8880753 66.516,41.232 L66.501,41.956 C66.5016002,42.1629354 66.4190966,42.3614485 66.272,42.507 C66.106,42.668 65.843,42.628 65.616,42.62 C65.3913349,42.5720884 65.2044757,42.4169952 65.116,42.205 C65.0495889,42.0471406 65.0214894,41.8758025 65.034,41.705 C65.034,41.55 64.98,41.313 65.206,41.158 C65.3285803,41.0918644 65.466873,41.0604028 65.606,41.067 C65.675,41.092 65.73,41.044 65.796,41.036 C65.8536435,41.051211 65.90769,41.0777244 65.955,41.114 C66.0231241,41.1769016 66.0875644,41.2436791 66.148,41.314 C66.211,41.357 66.339,41.366 66.371,41.451 C66.4790678,41.5961365 66.5267339,41.7774828 66.504,41.957 C66.4842707,42.0591443 66.4120291,42.1432569 66.3140344,42.1781817 C66.2160396,42.2131065 66.1068841,42.1936427 66.027,42.127 L65.707,41.857 Z M69.807,43.2 C69.874,42.647 69.3,42.1 68.845,42.279 C68.6208877,42.4239795 68.4726899,42.6609577 68.4404386,42.9259204 C68.4081873,43.1908831 68.4952102,43.4564923 68.678,43.651 C68.8720488,43.8164679 69.141788,43.8608316 69.3786103,43.7662285 C69.6154326,43.6716254 69.7803653,43.453624 69.807,43.2 Z" id="Shape" fill="#FFC757"/>
                <path d="M69.41,43.154 C69.388,42.966 69.168,42.83 69.085,42.699 L69.047,42.664 C69.039,42.635 69.02,42.586 69.006,42.602 C68.9732519,42.601308 68.9409871,42.6099813 68.913,42.627 C68.858,42.669 68.672,42.751 68.65,42.917 C68.638,43.247 68.895,43.506 69.05,43.44 C69.122,43.39 69.203,43.445 69.323,43.418 C69.4065301,43.3588926 69.4414707,43.2520393 69.409,43.155 C69.3508073,42.9970815 69.3934992,42.8196579 69.5171599,42.7054972 C69.6408205,42.5913364 69.8210841,42.5629326 69.9738578,42.6335361 C70.1266314,42.7041396 70.2218128,42.8598387 70.215,43.028 L70.204,43.252 C70.1888044,43.5688952 70.0375254,43.8637981 69.789,44.061 C69.5157039,44.2150373 69.1947151,44.2614024 68.889,44.191 C68.5800877,44.1248159 68.3180689,43.9216778 68.177,43.639 C68.0535574,43.3914944 68.0019393,43.1143506 68.028,42.839 C67.9879542,42.5225743 68.1161234,42.2082185 68.366,42.01 C68.5282568,41.9246293 68.711103,41.88619 68.894,41.899 C68.98,41.925 69.056,41.883 69.139,41.878 C69.2137014,41.898429 69.2848521,41.9301264 69.35,41.972 C69.4588471,42.0503819 69.5620974,42.1362568 69.659,42.229 C69.759,42.297 69.918,42.335 69.982,42.457 C70.1595044,42.6835911 70.2403667,42.9711014 70.207,43.257 C70.1667173,43.4440418 69.9996195,43.5763663 69.808324,43.572711 C69.6170285,43.5690556 69.4551078,43.4304442 69.422,43.242 L69.41,43.154 Z" id="Shape" fill="#FFC757"/>
            </g>
        </g>
    </g>
</svg>