<?xml version="1.0" encoding="UTF-8"?>
<svg width="38px" height="38px" viewBox="0 0 38 38" version="1.1" xmlns="http://www.w3.org/2000/svg" xmlns:xlink="http://www.w3.org/1999/xlink">
    <!-- Generator: Sketch 62 (91390) - https://sketch.com -->
    <title>wordpress-seeklogo.com</title>
    <desc>Created with Sketch.</desc>
    <g id="Final" stroke="none" stroke-width="1" fill="none" fill-rule="evenodd">
        <g id="upgrade-plan-01A" transform="translate(-487.000000, -211.000000)" fill="#130F26" fill-rule="nonzero">
            <g id="Group-30" transform="translate(454.000000, 114.000000)">
                <g id="wordpress-seeklogo.com" transform="translate(33.000000, 97.286750)">
                    <path d="M2.6448701,18.6064242 C2.6448701,24.9245899 6.31664714,30.384722 11.6410124,32.9721874 L4.02683598,12.1102733 C3.14116289,14.0954446 2.6448701,16.2923147 2.6448701,18.6064242 L2.6448701,18.6064242 Z M29.3827209,17.8009355 C29.3827209,15.8282171 28.6741216,14.4620452 28.0663603,13.3986908 C27.257227,12.0838489 26.4988161,10.9703793 26.4988161,9.65553746 C26.4988161,8.18822379 27.6116784,6.82235554 29.1792225,6.82235554 C29.2499913,6.82235554 29.3171154,6.83116367 29.3860618,6.83511215 C26.5461978,4.23337153 22.7626486,2.6448701 18.6070316,2.6448701 C13.0305715,2.6448701 8.12444075,5.50599506 5.27030154,9.83959709 C5.64479911,9.85083507 5.99773194,9.85873201 6.29751224,9.85873201 C7.96710925,9.85873201 10.5515373,9.65614492 10.5515373,9.65614492 C11.4120009,9.60542222 11.5134463,10.8692376 10.6538939,10.9709868 C10.6538939,10.9709868 9.78917812,11.0727359 8.82696539,11.1231549 L14.6397265,28.4129148 L18.1329111,17.9363985 L15.6459799,11.1225474 C14.7864274,11.0721284 13.9721307,10.9703793 13.9721307,10.9703793 C13.1119708,10.9199603 13.2128088,9.60481476 14.0729686,9.65553746 C14.0729686,9.65553746 16.7090306,9.85812455 18.2774859,9.85812455 C19.9467792,9.85812455 22.531511,9.65553746 22.531511,9.65553746 C23.3925821,9.60481476 23.4937237,10.8686302 22.6338677,10.9703793 C22.6338677,10.9703793 21.7673294,11.0721284 20.8069391,11.1225474 L26.5753558,28.2814003 L28.167502,22.9609836 C28.8575738,20.7531791 29.3827209,19.1674112 29.3827209,17.8009355 L29.3827209,17.8009355 Z M18.8870696,20.0026654 L14.0978744,33.9192137 C15.5278295,34.3395743 17.040095,34.569497 18.6070316,34.569497 C20.4658516,34.569497 22.2484358,34.2481518 23.907706,33.664689 C23.8648803,33.59635 23.826003,33.5237588 23.7941116,33.4447894 L18.8870696,20.0026654 L18.8870696,20.0026654 Z M32.6131799,10.9482071 C32.6818226,11.4566491 32.7207,12.0024496 32.7207,12.5895573 C32.7207,14.2093428 32.4181861,16.0301968 31.5069999,18.3069476 L26.631242,32.4039109 C31.3767001,29.636638 34.5685859,24.4954212 34.5685859,18.6067279 C34.5688895,15.8315582 33.8599865,13.2219206 32.6131799,10.9482071 L32.6131799,10.9482071 Z M18.6070316,0 C8.34737766,0 0,8.34677021 0,18.6064242 C0,28.8672931 8.34737766,37.2137596 18.6070316,37.2137596 C28.8663819,37.2137596 37.2149745,28.8672931 37.2149745,18.6064242 C37.2149745,8.34677021 28.8663819,0 18.6070316,0 L18.6070316,0 Z M18.6070316,36.3608892 C8.81785353,36.3608892 0.853174103,28.3962098 0.853174103,18.6064242 C0.853174103,8.81724607 8.8175498,0.853174103 18.6070316,0.853174103 C28.395906,0.853174103 36.359978,8.81724607 36.359978,18.6064242 C36.359978,28.3962098 28.395906,36.3608892 18.6070316,36.3608892 L18.6070316,36.3608892 Z" id="Shape"></path>
                </g>
            </g>
        </g>
    </g>
</svg>