<?xml version="1.0" encoding="UTF-8"?>
<svg width="44px" height="39px" viewBox="0 0 44 39" version="1.1" xmlns="http://www.w3.org/2000/svg" xmlns:xlink="http://www.w3.org/1999/xlink">
    <!-- Generator: Sketch 62 (91390) - https://sketch.com -->
    <title>icn-crushWhite</title>
    <desc>Created with Sketch.</desc>
    <g id="Final" stroke="none" stroke-width="1" fill="none" fill-rule="evenodd">
        <g id="upgrade-plan-01A" transform="translate(-599.000000, -209.000000)" fill="#130F26" fill-rule="nonzero">
            <g id="Group-30" transform="translate(454.000000, 114.000000)">
                <g id="icn-crushWhite" transform="translate(145.842000, 95.483250)">
                    <path d="M0,38.0635217 L0,14.3518197 L42.2928019,14.3518197 L42.2928019,38.0635217 L0,38.0635217 Z M2.25563961,36.078356 L12.6981103,30.1095662 L21.146303,33.342763 L24.422606,30.9535883 L40.0369665,36.078356 L40.0369665,16.8884203 L2.25563961,16.8884203 L2.25563961,36.078356 Z" id="Fill-1"></path>
                    <path d="M8.46197242,20.7357395 C9.13728447,20.7357395 9.72373081,20.8437369 10.2213291,21.0597353 C10.7189275,21.2757337 11.1027832,21.5842982 11.3729081,21.985438 C11.6430329,22.3865779 11.7780932,22.8579958 11.7780932,23.399706 C11.7780932,23.9414162 11.6430329,24.4111198 11.3729081,24.8088311 C11.1027832,25.2065424 10.7189275,25.5133927 10.2213291,25.7293909 C9.72373081,25.9453893 9.13728447,26.053387 8.46197242,26.053387 L7.16111483,26.053387 L7.16111483,27.935649 L5.0498868,27.935649 L5.0498868,20.7357395 L8.46197242,20.7357395 Z M8.33401928,24.4488357 C8.76764066,24.4488357 9.09462895,24.3579806 9.31499393,24.1762677 C9.53535884,23.9945547 9.64553963,23.7357034 9.64553963,23.399706 C9.64553963,23.0637085 9.53535884,22.803143 9.31499393,22.6180015 C9.09462895,22.4328601 8.76764066,22.3402907 8.33401928,22.3402907 L7.16111483,22.3402907 L7.16111483,24.4488357 L8.33401928,24.4488357 Z M14.9342725,20.7357395 L17.0455005,20.7357395 L17.0455005,27.935649 L14.9342725,27.935649 L14.9342725,20.7357395 Z M24.4028102,28.0796472 C23.62087,28.0796472 22.9189115,27.9202222 22.2969136,27.6013675 C21.6749157,27.2825128 21.1862104,26.8385228 20.830783,26.2693842 C20.4753557,25.7002457 20.2976446,25.0556888 20.2976446,24.3356942 C20.2976446,23.6156996 20.4753557,22.9711428 20.830783,22.4020042 C21.1862104,21.8328657 21.6749157,21.3888757 22.2969136,21.0700209 C22.9189115,20.7511662 23.62087,20.5917413 24.4028102,20.5917413 C25.0852308,20.5917413 25.7001109,20.7083101 26.2474691,20.9414511 C26.7948272,21.1745922 27.2497674,21.5105847 27.6123033,21.9494384 L26.2687946,23.1219952 C25.7854134,22.5597137 25.198967,22.2785772 24.5094379,22.2785772 C24.1042507,22.2785772 23.7434974,22.3642895 23.427167,22.5357168 C23.1108367,22.7071441 22.8655954,22.9488529 22.691436,23.2608506 C22.5172766,23.5728482 22.4301982,23.9311258 22.4301982,24.3356942 C22.4301982,24.7402626 22.5172766,25.0985403 22.691436,25.4105378 C22.8655954,25.7225354 23.1108367,25.9642443 23.427167,26.1356716 C23.7434974,26.3070989 24.1042507,26.3928112 24.5094379,26.3928112 C25.198967,26.3928112 25.7854134,26.1116747 26.2687946,25.5493932 L27.6123033,26.72195 C27.2497674,27.1608037 26.7948272,27.4967962 26.2474691,27.7299373 C25.7001109,27.9630784 25.0852308,28.0796472 24.4028102,28.0796472 Z M33.3062213,28.0796472 C32.7019947,28.0796472 32.1155484,28.0076488 31.5468646,27.8636499 C30.9781808,27.7196511 30.5161321,27.5276553 30.1607048,27.2876571 L30.8537847,25.7859618 C31.1878865,25.9985315 31.5752965,26.1699562 32.0160264,26.300241 C32.4567564,26.4305257 32.8903712,26.495667 33.3168841,26.495667 C34.1272585,26.495667 34.5324396,26.300243 34.5324396,25.9093888 C34.5324396,25.703676 34.4169275,25.551108 34.1858996,25.4516802 C33.9548718,25.3522523 33.5834558,25.2476833 33.0716405,25.1379699 C32.5100651,25.0213993 32.0409081,24.8962593 31.6641551,24.7625459 C31.2874021,24.6288328 30.9639681,24.4145519 30.6938432,24.1196969 C30.4237184,23.824842 30.2886581,23.4271367 30.2886581,22.926569 C30.2886581,22.4877152 30.4130557,22.0917241 30.6618549,21.7385839 C30.910654,21.3854438 31.28207,21.1060216 31.7761142,20.9003088 C32.2701582,20.694596 32.8761528,20.5917413 33.594116,20.5917413 C34.0846058,20.5917413 34.5679797,20.6448829 35.0442524,20.7511678 C35.5205251,20.8574527 35.9399231,21.0134492 36.302459,21.2191619 L35.6520302,22.7311429 C34.9411754,22.36086 34.2516567,22.1757214 33.5834533,22.1757214 C33.164049,22.1757214 32.858386,22.23572 32.6664552,22.355719 C32.4745245,22.4757182 32.3785604,22.6317147 32.3785604,22.8237132 C32.3785604,23.0157117 32.4922955,23.1597085 32.7197691,23.2557078 C32.9472426,23.351707 33.3133273,23.4511334 33.8180342,23.5539897 C34.386718,23.6705603 34.8576521,23.7957003 35.2308509,23.9294136 C35.6040496,24.0631268 35.9274836,24.2756935 36.2011628,24.5671199 C36.4748418,24.8585463 36.6116792,25.2545373 36.6116792,25.7551049 C36.6116792,26.1871017 36.4872816,26.57795 36.2384824,26.9276617 C35.9896832,27.2773733 35.6164901,27.5567955 35.1188918,27.7659369 C34.6212934,27.9750781 34.017076,28.0796472 33.3062213,28.0796472 Z" id="PICS"></path>
                    <path d="M5.68667231,12.3379526 C5.28488697,12.4324819 4.77795605,12.4798432 4.16627116,12.4798432 C1.38862652,12.4798432 0,10.9741399 0,7.96253981 C0,6.46476222 0.377701714,5.32035808 1.13330094,4.52932737 C1.88890018,3.73848999 2.97168425,3.34278132 4.38165317,3.34278132 C5.41392037,3.34278132 6.52666213,3.49781715 7.34609274,3.89719874 L6.7825751,6.12395403 C6.39939094,5.97162456 5.95668302,5.75434242 5.65514822,5.56741019 C5.3635993,5.38666393 4.71157924,5.2820824 4.38165317,5.2820824 C3.11520699,5.2820824 2.4821797,6.17034879 2.4821797,7.94688158 C2.4821797,9.67064034 3.11520699,10.5326163 4.38165317,10.5326163 C4.85001112,10.5326163 5.28351636,10.47095 5.68256047,10.3474239 C6.08180039,10.2238978 6.94704864,9.72747389 7.34609274,9.46457031 L7.34609274,11.6915188 C6.95233529,11.938571 6.08845765,12.2432299 5.68667231,12.3379526 Z M12.5461388,3.79619347 C13.0170422,3.49404758 13.529064,3.34287797 14.0825957,3.34287797 C14.4123259,3.34287797 14.6864485,3.36646197 14.9045718,3.4138233 L14.7211054,5.66860876 C14.5241288,5.61602803 14.2846632,5.58954436 14.0027085,5.58954436 C13.2257669,5.58954436 12.6205435,5.7867221 12.1870382,6.18088426 C11.7531415,6.57504644 11.2918323,7.08480889 11.2918323,7.79426215 L11.2918323,12.2481594 L9.03717434,12.2481594 L9.03717434,3.34036492 L10.7281189,3.34036492 L11.304951,4.99047198 L11.4247817,4.99047198 C11.7014497,4.49656107 12.0752354,4.09833936 12.5461388,3.79619347 Z M24.2558122,12.2481787 L22.5648677,12.2481787 L22.1102159,11.1948242 L21.982553,11.1948242 C21.7219408,11.6046447 21.3520712,11.9214823 20.87314,12.144757 C20.3942086,12.3680318 19.8489006,12.4797659 19.2370199,12.4797659 C18.1886969,12.4797659 17.3986366,12.2027505 16.8664473,11.6481398 C16.334258,11.0937224 16.3646072,9.94835163 16.3646072,8.90775585 L16.3646072,3.34038426 L18.6192652,3.34038426 L18.6192652,8.35101867 C18.6192652,8.98701345 18.6171114,9.76915188 18.8460037,10.0871494 C19.0747002,10.4051467 19.4390874,10.5642421 19.939361,10.5642421 C20.6203598,10.5642421 21.1126055,10.3394208 21.4159026,9.89016492 C21.7191996,9.44071557 22.0011542,8.83487736 22.0011542,7.7942815 L22.0011542,3.34038426 L24.2558122,3.34038426 L24.2558122,12.2481787 Z M32.4446751,8.57744441 C32.598967,8.89273548 32.6761129,9.26872637 32.6761129,9.70483719 C32.6761129,10.6087618 32.3581308,11.2973373 31.7223622,11.7703707 C31.0863979,12.2432106 30.1353885,12.4798239 28.8689423,12.4798239 C28.2196634,12.4798239 27.6663275,12.4363288 27.2089345,12.3497253 C26.7511498,12.2629284 26.3229312,12.1357294 25.9238871,11.9673551 L25.9238871,9.98069271 C26.3759935,10.1910156 26.8856656,10.3669291 27.4523161,10.5090131 C28.0189666,10.6509037 28.5178696,10.7218491 28.9488294,10.7218491 C29.8320914,10.7218491 30.2738203,10.4695775 30.2738203,9.96503446 C30.2738203,9.77578246 30.2150798,9.62209983 30.0981861,9.50379319 C29.9810966,9.38548656 29.7788334,9.25152166 29.4915921,9.10170521 C29.204155,8.95188884 28.8211666,8.77732846 28.3422354,8.57744441 C27.6557542,8.29366307 27.1515645,8.03095274 26.8296663,7.78912004 C26.5077681,7.54748068 26.2735892,7.27007868 26.1273252,6.95749392 C25.9808654,6.64471591 25.9078313,6.25983269 25.9078313,5.80245766 C25.9078313,5.01954603 26.2152402,4.41370776 26.8296663,3.98532945 C27.4442882,3.55714445 28.3156063,3.34276199 29.4436206,3.34276199 C30.5183768,3.34276199 31.5639585,3.57415587 32.5803658,4.036557 L31.846109,5.77094788 C31.3990935,5.58169591 30.9812523,5.42685339 30.5929773,5.30584038 C30.2045065,5.18502068 29.8080078,5.12451418 29.403677,5.12451418 C28.6854759,5.12451418 28.3261797,5.31647252 28.3261797,5.70000256 C28.3261797,5.91554489 28.4420943,6.1020905 28.673532,6.25983269 C28.9049699,6.41738157 29.411705,6.6512885 30.1939332,6.96136014 C30.8909877,7.24011533 31.4016388,7.50011937 31.726474,7.74175873 C32.0509177,7.98359143 32.2901875,8.26215335 32.4446751,8.57744441 Z M42.2928019,6.68084583 L42.2928019,12.2482174 L40.0381439,12.2482174 L40.0381439,7.23758301 C40.0381439,5.96578655 39.490682,5.26638551 38.5330153,5.26638551 C37.8518208,5.26638551 37.3597708,5.49507302 37.056278,5.95225474 C36.7531768,6.40962978 36.6562549,7.32611965 36.6562549,8.35105731 L36.6562549,12.2482174 L34.4015969,12.2482174 L34.4015969,0 L36.6562549,0 L36.6562549,4.45389723 C37.1990175,3.59192119 38.0221683,3.34274265 39.2034408,3.34274265 C40.2515679,3.34274265 41.0471107,3.62149785 41.5898733,4.17842832 C42.132636,4.7355521 42.2928019,5.64024997 42.2928019,6.68084583 Z" id="Combined-Shape"></path>
                </g>
            </g>
        </g>
    </g>
</svg>