<?xml version="1.0" encoding="UTF-8"?>
<svg width="76px" height="69px" viewBox="0 0 76 69" version="1.1" xmlns="http://www.w3.org/2000/svg" xmlns:xlink="http://www.w3.org/1999/xlink">
    <!-- Generator: Sketch 59 (86127) - https://sketch.com -->
    <title>all-compressed</title>
    <desc>Created with Sketch.</desc>
    <g id="Final" stroke="none" stroke-width="1" fill="none" fill-rule="evenodd">
        <g id="wpcrush-dashboard-all-compressed" transform="translate(-1028.000000, -151.000000)" fill="#5C6AC4" fill-rule="nonzero">
            <g id="all-compressed" transform="translate(1028.000000, 151.000000)">
                <g id="Group-Copy">
                    <path d="M28.7069919,10.0525862 C28.2962276,9.5622597 27.5596368,9.46516413 27.0270754,9.83114378 C26.494514,10.1971234 26.3506026,10.8993058 26.6988618,11.4325862 C26.9274797,11.7656897 27.180813,12.0928448 27.4217886,12.4021552 C30.3196748,16.1674138 31.8211382,20.7297414 33.1186992,25.2682759 C33.4338211,26.3806034 33.7365854,27.5643103 33.3782114,28.6647414 C33.8256517,25.7016096 33.6150543,22.6808096 32.7603252,19.8018103 C31.9126935,16.9335281 30.8236693,14.1365128 29.504065,11.4385345 C29.2915738,10.9499966 29.0242984,10.485259 28.7069919,10.0525862 L28.7069919,10.0525862 Z" id="Path"></path>
                    <path d="M9.88617886,17.9816379 C7.92747967,17.9221552 7.6803252,20.7773276 9.62666667,20.9557759 C10.1395122,20.9914655 10.6523577,21.0033621 11.1466667,21.0152586 C17.1401626,21.1758621 22.8,23.2696552 28.2435772,25.5121552 C29.5843902,26.0653448 30.9869919,26.7018103 31.7655285,27.8914655 C29.2371156,25.1978395 26.1233209,23.0735293 22.6455285,21.669569 C19.162162,20.2646623 15.5614292,19.1463536 11.8819512,18.3266379 C11.2326249,18.1383928 10.5629714,18.0226329 9.88617886,17.9816379 L9.88617886,17.9816379 Z" id="Path"></path>
                    <path d="M10.4299187,25.0006034 C9.19414634,25.0481897 9.47219512,26.7375 10.7203252,26.7493966 C11.041626,26.7493966 11.3382114,26.7493966 11.6780488,26.7493966 C15.4595122,26.6006897 19.3274797,27.6059483 23.0842276,28.7063793 C24.0317357,28.9126139 24.9122144,29.3394878 25.6484553,29.949569 C23.6529204,28.469746 21.3935649,27.3529972 18.9814634,26.6542241 C16.6094535,25.9685271 14.1893534,25.4477048 11.7398374,25.0957759 C11.3072751,25.0244916 10.8686949,24.9926265 10.4299187,25.0006034 Z" id="Path"></path>
                    <path d="M35.7138211,56.4253448 C36.0660163,57.5674138 37.6972358,56.8893103 37.4006504,55.7293966 C37.3203252,55.4200862 37.2276423,55.134569 37.1349593,54.8371552 C36.0536585,51.3514655 36.1030894,47.4910345 36.2822764,43.7138793 C36.2519494,42.7801712 36.464338,41.8539555 36.9001626,41.0193103 C35.8979756,43.2442513 35.3283286,45.6273224 35.2195122,48.0501724 C35.1245377,50.4322497 35.2092044,52.8178216 35.4728455,55.1881034 C35.5120189,55.6069692 35.5927114,56.0212688 35.7138211,56.4253448 Z" id="Path"></path>
                    <path d="M12.6852033,8.47034483 C11.937561,8.34543103 11.8819512,9.38637931 12.6234146,9.54698276 C12.8211382,9.58862069 13.0126829,9.61836207 13.1980488,9.64810345 C15.4780488,10.0228448 17.6530081,11.0935345 19.7538211,12.2118103 C20.2945775,12.4480581 20.7643628,12.8123166 21.1193496,13.2706034 C20.1246457,12.1409643 18.9223796,11.1973007 17.5726829,10.4868103 C16.2445796,9.79455923 14.8649683,9.19809535 13.4452033,8.70232759 C13.2012689,8.59892447 12.9464624,8.52114723 12.6852033,8.47034483 L12.6852033,8.47034483 Z" id="Path"></path>
                    <path d="M1.19869919,36.1119828 C-0.685853659,37.0458621 0.908292683,39.609569 2.84845528,38.7589655 C3.35512195,38.5388793 3.84943089,38.2890517 4.31902439,38.0511207 C10.0900813,35.1721552 16.7879675,34.1133621 23.3746341,33.2925 C24.9934959,33.0962069 26.7173984,32.9177586 28.2126829,33.5363793 C24.0966998,32.5029929 19.8105212,32.2544495 15.5954472,32.8047414 C11.4290186,33.3517084 7.31217626,34.2048023 3.28097561,35.3565517 C2.56126694,35.5373126 1.86332768,35.7905186 1.19869919,36.1119828 Z" id="Path"></path>
                    <path d="M6.59284553,46.0991379 C5.23349593,47.3185345 7.35284553,48.7580172 8.77398374,47.5862069 C9.14471545,47.2828448 9.50308943,46.9556897 9.83674797,46.6523276 C13.9704065,42.9168103 19.4325203,40.257931 24.8699187,37.8072414 C26.2045528,37.2124138 31.6666667,36.6175862 33.1681301,36.6175862 C29.3372358,36.9447414 21.5086179,38.0987069 18.0299187,39.6214655 C14.6128564,41.1892191 11.3099176,42.977788 8.14373984,44.9749138 C7.59183335,45.3027622 7.07265168,45.6791106 6.59284553,46.0991379 Z" id="Path"></path>
                    <path d="M16.2627642,62.0464655 C15.8673171,63.7893103 18.4562602,63.8309483 18.9382114,62.0464655 C19.0617886,61.5884483 19.1668293,61.130431 19.2656911,60.6902586 C20.4582114,55.3368103 23.380813,50.1796552 26.4084553,45.1890517 C27.1499187,43.9696552 31.3082927,40.430431 32.5378862,39.6809483 C29.5782114,42.0602586 23.8195122,47.2768966 21.860813,50.435431 C19.9854278,53.5858417 18.3339486,56.8549676 16.9177236,60.2203448 C16.6431551,60.8089862 16.423958,61.4201393 16.2627642,62.0464655 L16.2627642,62.0464655 Z" id="Path"></path>
                    <path d="M35.7385366,0.820862069 C34.8117073,-0.963620689 32.1733333,0.499655173 33.0136585,2.36146552 C33.2299187,2.84922414 33.4770732,3.32508621 33.7118699,3.77715517 C36.5541463,9.315 37.5365854,15.7212931 38.2656911,22.0205172 C38.444878,23.567069 38.5993496,25.2087931 37.9443902,26.630431 C39.0586089,22.7168455 39.3775065,18.6329808 38.8835772,14.6030172 C38.3833048,10.619989 37.5715699,6.67897522 36.4552846,2.81353448 C36.2857261,2.1280374 36.0456235,1.46051454 35.7385366,0.820862069 L35.7385366,0.820862069 Z" id="Path"></path>
                    <path d="M21.0081301,3.90801724 C21.0550739,3.93523212 21.1079668,3.95152619 21.1626016,3.95560345 C21.2657251,3.93557332 21.348922,3.86234628 21.3788618,3.76525862 C21.6136585,3.28344828 21.4777236,2.65887931 21.8360976,2.24844828 C22.1957985,2.66661652 22.4855665,3.13622301 22.6949593,3.64034483 L24.097561,3.23586207 C24.2243331,3.74877076 24.1307656,4.28922459 23.8380488,4.73482759 C24.0696289,4.83455325 24.2793349,4.97586936 24.455935,5.1512069 C24.6396757,5.33399685 24.7017025,5.60040454 24.6165854,5.8412069 C24.3030747,5.91291282 23.9808375,5.94293331 23.6588618,5.93043103 C23.712694,6.50305407 23.6793888,7.08017571 23.56,7.64353448 C23.552963,7.72904418 23.5106906,7.80829201 23.4426016,7.86362069 C23.3315836,7.90569342 23.2054901,7.88508038 23.115122,7.81008621 C22.6436451,7.53430114 22.2574802,7.14200846 21.996748,6.67396552 L21.4962602,7.86362069 C21.4607247,7.98340631 21.3789264,8.08556288 21.2676423,8.14913793 C21.111602,8.20482339 20.9363694,8.14776541 20.8474797,8.01232759 C20.7633715,7.87861024 20.7126116,7.72794143 20.699187,7.57215517 L20.5076423,6.46577586 C20.5059217,6.40895841 20.484126,6.35440443 20.4458537,6.31112069 C20.3894588,6.26963634 20.3187198,6.25048346 20.2481301,6.25758621 C19.7661789,6.25758621 19.2904065,6.25758621 18.8146341,6.25758621 C18.7281301,6.0137069 18.9814634,5.78172414 19.2286179,5.66275862 C19.4757724,5.5437931 19.76,5.48431034 19.8835772,5.25232759 C20.1369106,4.78836207 19.4881301,4.14 19.7661789,3.73551724 C20.0442276,3.33103448 20.6065041,3.71172414 21.0081301,3.90801724 Z" id="Path"></path>
                    <path d="M47.1817886,10.0525862 C47.5776376,9.51710812 48.349455,9.39194087 48.905691,9.77301733 C49.461927,10.1540938 49.5919465,10.8971081 49.1960976,11.4325862 C48.9613008,11.7656897 48.7141463,12.0928448 48.4731707,12.4021552 C45.5752846,16.1674138 44.0676423,20.7297414 42.7762602,25.2682759 C42.4549593,26.3806034 42.158374,27.5643103 42.5105691,28.6647414 C42.0633171,25.7016026 42.2739119,22.6808408 43.1284553,19.8018103 C43.9733199,16.9326522 45.0624278,14.1354219 46.3847154,11.4385345 C46.5969837,10.9498926 46.8642722,10.4851322 47.1817886,10.0525862 L47.1817886,10.0525862 Z" id="Path"></path>
                    <path d="M66.0026016,17.9816379 C67.955122,17.9221552 68.2084553,20.7773276 66.255935,20.9557759 C65.7492683,20.9914655 65.2302439,21.0033621 64.7421138,21.0152586 C58.7486179,21.1758621 53.0826016,23.2696552 47.6390244,25.5121552 C46.3043902,26.0653448 44.9017886,26.7018103 44.123252,27.8914655 C46.6516649,25.1978395 49.7654596,23.0735293 53.243252,21.669569 C56.7248358,20.265541 60.3234383,19.147252 64.0006504,18.3266379 C64.6522019,18.1388603 65.3238452,18.0231148 66.0026016,17.9816379 Z" id="Path"></path>
                    <path d="M65.495935,25.0006034 C66.7317073,25.0481897 66.4474797,26.7375 65.2055285,26.7493966 C64.8780488,26.7493966 64.556748,26.7493966 64.2478049,26.7493966 C60.4663415,26.6006897 56.598374,27.6059483 52.841626,28.7063793 C51.893601,28.911225 51.0127879,29.3382611 50.2773984,29.949569 C52.2721862,28.4686129 54.5317675,27.3517524 56.9443902,26.6542241 C59.3210655,25.9760127 61.7453067,25.4631394 64.198374,25.119569 C64.6260948,25.0410503 65.0605075,25.0012217 65.495935,25.0006034 Z" id="Path"></path>
                    <path d="M63.2097561,8.47034483 C63.9573984,8.34543103 64.0130081,9.38637931 63.2715447,9.54698276 C63.0738211,9.58862069 62.8822764,9.61836207 62.6907317,9.64810345 C60.4169106,10.0228448 58.2357724,11.0935345 56.1411382,12.2118103 C55.6003819,12.4480581 55.1305966,12.8123166 54.7756098,13.2706034 C55.768085,12.1411468 56.9682944,11.1974535 58.3160976,10.4868103 C59.6468812,9.79562867 61.0284631,9.19920568 62.4497561,8.70232759 C62.6933196,8.5979814 62.9482355,8.52017075 63.2097561,8.47034483 L63.2097561,8.47034483 Z" id="Path"></path>
                    <path d="M43.8699187,58.5905172 C43.7030894,59.2983621 42.6835772,58.9474138 42.8195122,58.2276724 C42.8195122,58.0373276 42.8998374,57.852931 42.9430894,57.6744828 C43.4621138,55.5093103 43.2705691,53.1597414 43.0110569,50.8637069 C42.9902523,50.2937702 42.8225059,49.7377665 42.5229268,49.2457759 C43.2216448,50.5647023 43.661531,51.9964354 43.8204878,53.4690517 C43.975636,54.9173025 44.0231282,56.3743723 43.9626016,57.8291379 C43.9595828,58.0853611 43.9285168,58.3405642 43.8699187,58.5905172 Z" id="Path"></path>
                    <path d="M62.7339837,53.8794828 C63.3147967,54.8252586 61.8874797,54.7598276 61.2634146,53.8140517 C61.0965854,53.5642241 60.9482927,53.3143966 60.8,53.0764655 C59.0328455,50.1796552 56.3388618,47.3125862 53.6263415,44.5466379 C52.9862035,43.8276297 52.2386361,43.2041835 51.4081301,42.6967241 C53.5262435,44.08764 55.4800703,45.6972865 57.2347967,47.4969828 C58.9772358,49.2457759 60.5095935,51.0659483 62.0172358,52.8980172 C62.2774343,53.2102784 62.5168294,53.5380896 62.7339837,53.8794828 L62.7339837,53.8794828 Z" id="Path"></path>
                    <path d="M11.0539837,53.8794828 C10.4731707,54.8252586 11.9004878,54.7598276 12.5307317,53.8140517 C12.6913821,53.5642241 12.8458537,53.3143966 12.9879675,53.0764655 C14.755122,50.1796552 17.4491057,47.3125862 20.161626,44.5466379 C20.8039705,43.827487 21.5535952,43.2040617 22.3860163,42.6967241 C20.2659248,44.0875182 18.3100364,45.6971562 16.5531707,47.4969828 C14.8169106,49.2457759 13.278374,51.0659483 11.7707317,52.8980172 C11.5105332,53.2102784 11.2711381,53.5380896 11.0539837,53.8794828 L11.0539837,53.8794828 Z" id="Path"></path>
                    <path d="M29.955122,58.5905172 C30.1219512,59.2983621 31.1414634,58.9474138 31.0117073,58.2276724 C30.9746341,58.0373276 30.9313821,57.852931 30.8881301,57.6744828 C30.3691057,55.5093103 30.5544715,53.1597414 30.8201626,50.8637069 C30.8359274,50.2938128 31.0017601,49.7371055 31.3021138,49.2457759 C30.6033959,50.5647023 30.1635096,51.9964354 30.0045528,53.4690517 C29.848442,54.9172514 29.8030082,56.3745319 29.8686179,57.8291379 C29.8726285,58.0849785 29.9015904,58.3398909 29.955122,58.5905172 L29.955122,58.5905172 Z" id="Path"></path>
                    <path d="M57.2595122,15.5844828 C58.0009756,15.459569 58.0565854,16.5064655 57.315122,16.6611207 C57.1235772,16.7027586 56.9258537,16.7325 56.7404878,16.7681897 C54.4604878,17.1369828 52.2855285,18.2136207 50.1847154,19.3318966 C49.6465845,19.5694893 49.1775771,19.9311017 48.819187,20.3847414 C49.8141443,19.2569444 51.016436,18.3152772 52.3658537,17.6068966 C53.6940173,16.9147629 55.0736194,16.318303 56.4933333,15.8224138 C56.7398626,15.7187494 56.996529,15.6390436 57.2595122,15.5844828 L57.2595122,15.5844828 Z" id="Path"></path>
                    <path d="M50.3082927,1.61198276 C50.9261789,1.2312931 51.4081301,2.20681034 50.784065,2.5875 L50.2897561,2.89086207 C48.324878,4.08051724 46.718374,5.865 45.2045528,7.64948276 C44.7963588,8.06229812 44.5030639,8.56766288 44.3518699,9.1187069 C44.8337387,7.71383015 45.5816269,6.40697914 46.5577236,5.26422414 C47.5179594,4.1389405 48.562952,3.08324218 49.6842276,2.10568966 C49.8743725,1.92122913 50.0834646,1.75581339 50.3082927,1.61198276 L50.3082927,1.61198276 Z" id="Path"></path>
                    <path d="M74.6962602,36.1119828 C76.580813,37.0458621 74.9866667,39.609569 73.0465041,38.7589655 C72.5398374,38.5388793 72.0455285,38.2890517 71.5697561,38.0511207 C65.804878,35.1721552 59.1069919,34.1133621 52.5203252,33.2925 C50.9014634,33.0962069 49.177561,32.9177586 47.6822764,33.5363793 C51.7961839,32.5031643 56.0803077,32.2546183 60.2933333,32.8047414 C64.4619039,33.3510884 68.5808488,34.20419 72.6139837,35.3565517 C73.3330293,35.5393156 74.0307567,35.7924448 74.6962602,36.1119828 L74.6962602,36.1119828 Z" id="Path"></path>
                    <path d="M69.3021138,46.0991379 C70.6614634,47.3185345 68.5421138,48.7580172 67.1209756,47.5862069 C66.7502439,47.2828448 66.3918699,46.9556897 66.0520325,46.6523276 C61.918374,42.9168103 56.462439,40.257931 51.0188618,37.8072414 C49.6904065,37.2124138 44.1912195,36.6175862 42.7268293,36.6175862 C46.5577236,36.9447414 54.3801626,38.0987069 57.8588618,39.6214655 C61.2765099,41.1881318 64.5795239,42.9767414 67.7450407,44.9749138 C68.2990888,45.3024562 68.8203503,45.6788128 69.3021138,46.0991379 L69.3021138,46.0991379 Z" id="Path"></path>
                    <path d="M53.3235772,64.0391379 C53.4904065,65.8236207 50.9138211,65.5262069 50.6666667,63.7417241 C50.604878,63.2777586 50.561626,62.8078448 50.518374,62.3617241 C50.0302439,56.925 47.7996748,51.4347414 45.4455285,46.122931 C44.8708943,44.8143103 41.2006504,40.8289655 40.0884553,39.912931 C42.7144715,42.6193966 47.744065,48.5022414 49.2826016,51.8689655 C50.7406981,55.2242426 51.9627508,58.6701208 52.9404878,62.1832759 C53.1296758,62.7886469 53.2579625,63.4101271 53.3235772,64.0391379 L53.3235772,64.0391379 Z" id="Path"></path>
                    <path d="M54.8682927,3.90801724 C54.819146,3.93531838 54.7642305,3.95158488 54.7076423,3.95560345 C54.6087805,3.95560345 54.5346341,3.85448276 54.4913821,3.76525862 C54.2627642,3.28344828 54.3925203,2.65887931 54.0403252,2.24844828 C53.6786881,2.66638311 53.3868463,3.13597214 53.1752846,3.64034483 L51.8221138,3.23586207 C51.6917027,3.74864511 51.7855092,4.29047964 52.081626,4.73482759 C51.8500459,4.83455325 51.6403398,4.97586936 51.4637398,5.1512069 C51.2778265,5.332735 51.2133754,5.59930281 51.2969106,5.8412069 C51.6105218,5.91232957 51.9326759,5.94234233 52.2546341,5.93043103 C52.2059898,6.50338168 52.2413502,7.08007184 52.3596748,7.64353448 C52.3667118,7.72904418 52.4089842,7.80829201 52.4770732,7.86362069 C52.5880912,7.90569342 52.7141847,7.88508038 52.8045528,7.81008621 C53.2760297,7.53430114 53.6621946,7.14200846 53.9229268,6.67396552 L54.4234146,7.86362069 C54.4590434,7.98165918 54.53812,8.08316 54.6458537,8.14913793 C54.803706,8.2056351 54.9811256,8.14870224 55.0721951,8.01232759 C55.1563033,7.87861024 55.2070632,7.72794143 55.2204878,7.57215517 L55.4120325,6.46577586 C55.4137531,6.40895841 55.4355488,6.35440443 55.4738211,6.31112069 C55.530216,6.26963634 55.600955,6.25048346 55.6715447,6.25758621 C56.1473171,6.25758621 56.6292683,6.25758621 57.1050407,6.25758621 C57.1915447,6.0137069 56.9320325,5.78172414 56.6910569,5.66275862 C56.4500813,5.5437931 56.1534959,5.48431034 56.0299187,5.25232759 C55.7827642,4.78836207 56.4315447,4.14 56.1534959,3.73551724 C55.8754472,3.33103448 55.2884553,3.71172414 54.8682927,3.90801724 Z" id="Path"></path>
                    <path d="M58.9586992,57.6387931 C58.9095525,57.6660942 58.854637,57.6823607 58.7980488,57.6863793 C58.6930081,57.6863793 58.6250407,57.5852586 58.5817886,57.4960345 C58.3531707,57.0142241 58.4829268,56.3896552 58.1307317,55.9792241 C57.7682633,56.3965909 57.4763398,56.8663114 57.2656911,57.3711207 L55.9125203,56.9666379 C55.7832058,57.4787244 55.8745815,58.0193921 56.1658537,58.4656034 C55.9360174,58.568267 55.7268381,58.7092281 55.5479675,58.8819828 C55.3620542,59.0635109 55.297603,59.3300787 55.3811382,59.5719828 C55.6947494,59.6431054 56.0169036,59.6731182 56.3388618,59.6612069 C56.2881763,60.2358557 56.3214543,60.8145081 56.4377236,61.3802586 C56.4456874,61.4638361 56.4879403,61.5409066 56.555122,61.5943966 C56.6539837,61.6538793 56.7837398,61.5943966 56.8887805,61.5408621 C57.3564859,61.2624775 57.7400175,60.8706953 58.0009756,60.4047414 L58.5076423,61.5646552 C58.5424486,61.6846439 58.6215421,61.7882815 58.7300813,61.8561207 C58.8875791,61.9083172 59.0616714,61.8491659 59.1502439,61.7133621 C59.2363202,61.5800754 59.2891898,61.4294215 59.3047154,61.2731897 L59.4900813,60.1727586 C59.4963278,60.1150755 59.5175788,60.0598391 59.5518699,60.0121552 C59.6101626,59.9697423 59.6831835,59.9505707 59.7557724,59.9586207 C60.2315447,59.9586207 60.7134959,59.9586207 61.1892683,59.9586207 C61.2695935,59.7147414 61.0162602,59.4827586 60.7752846,59.3637931 C60.5343089,59.2448276 60.2377236,59.1853448 60.1141463,58.9533621 C59.8669919,58.4893966 60.5095935,57.8410345 60.2377236,57.4365517 C59.9658537,57.032069 59.3788618,57.4425 58.9586992,57.6387931 Z" id="Path"></path>
                    <path d="M70.4390244,21.6219828 C70.3895601,21.6485754 70.3348112,21.6647926 70.278374,21.669569 C70.1733333,21.669569 70.1053659,21.5684483 70.0621138,21.4792241 C69.8273171,20.9974138 69.963252,20.3728448 69.604878,19.9624138 C69.2464757,20.3814616 68.9568326,20.8508656 68.7460163,21.3543103 L67.3866667,20.9498276 C67.2598946,21.4627363 67.353462,22.0031901 67.6461789,22.4487931 C67.4142957,22.5480034 67.2044934,22.6893844 67.0282927,22.8651724 C66.8423794,23.0467005 66.7779282,23.3132683 66.8614634,23.5551724 C67.1750248,23.6265847 67.49722,23.6566012 67.819187,23.6443966 C67.7685015,24.2190453 67.8017795,24.7976977 67.9180488,25.3634483 C67.9260126,25.4470257 67.9682655,25.5240963 68.0354472,25.5775862 C68.1464652,25.6196589 68.2725587,25.5990459 68.3629268,25.5240517 C68.8344036,25.2482667 69.2205685,24.855974 69.4813008,24.387931 L69.9879675,25.5775862 C70.0227738,25.697575 70.1018673,25.8012125 70.2104065,25.8690517 C70.3679043,25.9212482 70.5419966,25.8620969 70.6305691,25.7262931 C70.7173355,25.5937603 70.7683115,25.4424498 70.7788618,25.2861207 L70.9704065,24.1856897 C70.9712197,24.1269104 70.9930398,24.0701947 71.0321951,24.0250862 C71.08859,23.9836019 71.159329,23.964449 71.2299187,23.9715517 C71.7118699,23.9715517 72.1876423,23.9715517 72.6695935,23.9715517 C72.7499187,23.7276724 72.4965854,23.4956897 72.2494309,23.3767241 C72.0022764,23.2577586 71.7180488,23.1982759 71.5944715,22.9662931 C71.3411382,22.5023276 71.9899187,21.8539655 71.7180488,21.4494828 C71.4461789,21.045 70.859187,21.4256897 70.4390244,21.6219828 Z" id="Path"></path>
                    <path d="M24.5239024,63.027931 C24.457926,63.0700661 24.3806355,63.0928013 24.3014634,63.0933621 C24.1593496,63.0933621 24.0604878,62.9565517 23.9986992,62.8316379 C23.6773984,62.1535345 23.8627642,61.2850862 23.380813,60.72 C22.8776542,61.3015703 22.4731005,61.9560176 22.1821138,62.6591379 L20.2913821,62.0643103 C20.1125812,62.776345 20.2419279,63.5277572 20.6497561,64.1462069 C20.3175432,64.2898596 20.0158634,64.4915413 19.76,64.7410345 C19.5020145,64.9953911 19.411616,65.3663921 19.5252033,65.7046552 C19.9619808,65.8052752 20.4111063,65.8473107 20.8598374,65.829569 C20.793797,66.6251952 20.8416153,67.4257839 21.0019512,68.2088793 C21.0139692,68.327182 21.0739043,68.4361678 21.1687805,68.5122414 C21.3047154,68.5955172 21.4839024,68.5122414 21.6260163,68.4408621 C22.2707833,68.0569713 22.8026041,67.5204225 23.1707317,66.8824138 L23.8689431,68.4943966 C23.9186769,68.6619726 24.0308812,68.8059953 24.184065,68.8988793 C24.4120306,68.9915649 24.6760641,68.9076855 24.8019512,68.7025862 C24.9191686,68.5227782 24.9911091,68.3190848 25.0120325,68.1077586 L25.2715447,66.5731034 C25.2799358,66.4927173 25.3121021,66.4163349 25.3642276,66.3530172 C25.4447093,66.2968189 25.5430627,66.269466 25.6422764,66.2756897 C26.3095935,66.2756897 26.9707317,66.2756897 27.6380488,66.2756897 C27.7554472,65.9366379 27.3970732,65.6213793 27.0572358,65.4726724 C26.7173984,65.3239655 26.3157724,65.2228448 26.1427642,64.9075862 C25.796748,64.2532759 26.6926829,63.3491379 26.3095935,62.79 C25.8338211,62.1237931 25.1108943,62.7483621 24.5239024,63.027931 Z" id="Path"></path>
                    <path d="M5.41886179,22.6986207 C5.35158811,22.7380428 5.2750955,22.7605434 5.19642276,22.7640517 C5.05430894,22.7640517 4.95544715,22.6212931 4.89365854,22.4963793 C4.57235772,21.8242241 4.75772358,20.9557759 4.27577236,20.3847414 C3.7739518,20.967222 3.36952922,21.6214571 3.07707317,22.3238793 L1.18634146,21.7647414 C1.0075405,22.4767761 1.13688726,23.2281882 1.54471545,23.8466379 C1.21126121,23.9881685 0.909190717,24.1901113 0.65495935,24.4414655 C0.396355567,24.6931688 0.307829267,25.0640025 0.426341463,25.3991379 C0.860152316,25.5049409 1.30771722,25.5490291 1.75479675,25.53 C1.68804718,26.3256185 1.73587114,27.1263009 1.89691057,27.9093103 C1.90734163,28.0297352 1.96742167,28.1411268 2.06373984,28.2186207 C2.1996748,28.3018966 2.37886179,28.2186207 2.52097561,28.1412931 C3.17251958,27.7513416 3.70876501,27.2064285 4.07804878,26.5590517 L4.77626016,28.1710345 C4.82803285,28.3376283 4.93974871,28.481024 5.09138211,28.5755172 C5.31064832,28.6514612 5.55523087,28.5696715 5.67837398,28.3792241 C5.79559137,28.1994161 5.86753185,27.9957227 5.88845528,27.7843966 L6.14796748,26.2497414 C6.15635859,26.1693552 6.18852482,26.0929728 6.24065041,26.0296552 C6.32113205,25.9734568 6.41948546,25.9461039 6.51869919,25.9523276 C7.18601626,25.9523276 7.84715447,25.9523276 8.51447154,25.9523276 C8.63186992,25.6132759 8.2796748,25.292069 7.93365854,25.1493103 C7.58764228,25.0065517 7.19219512,24.8994828 7.01918699,24.5544828 C6.67317073,23.9061207 7.56910569,23.0019828 7.19219512,22.4428448 C6.72878049,21.7706897 6.00585366,22.4190517 5.41886179,22.6986207 Z" id="Path"></path>
                    <path d="M63.3889431,47.675431 C63.3507128,47.686873 63.309775,47.686873 63.2715447,47.675431 C63.1973984,47.675431 63.1417886,47.6040517 63.1108943,47.5386207 C62.944065,47.1817241 63.0429268,46.7177586 62.7772358,46.4143966 C62.5182157,46.7252367 62.3098663,47.07223 62.1593496,47.4434483 L61.1521951,47.1460345 C61.0587443,47.5246139 61.1277983,47.9234755 61.3437398,48.2524138 C61.1678607,48.3252375 61.0083695,48.4302906 60.8741463,48.5617241 C60.7356767,48.6959686 60.6878407,48.8939873 60.7505691,49.0732759 C60.9811039,49.1266719 61.2179283,49.1506705 61.4549593,49.1446552 C61.4167619,49.5684862 61.4438293,49.9954247 61.5352846,50.4116379 C61.5410285,50.4740489 61.5721127,50.5317598 61.6217886,50.5722414 C61.6897561,50.6198276 61.7886179,50.5722414 61.8627642,50.5306034 C62.2115167,50.3271277 62.4973851,50.0375513 62.6907317,49.6918966 L63.0614634,50.5484483 C63.0872532,50.6374221 63.1467879,50.7138393 63.2282927,50.7625862 C63.3450042,50.7996208 63.4731276,50.7585068 63.5434146,50.6614655 C63.6023413,50.5604592 63.6401271,50.4493115 63.6546341,50.3343103 L63.7905691,49.5193966 C63.7940473,49.475814 63.8112966,49.4343 63.84,49.400431 C63.8831378,49.3708476 63.9353983,49.3561738 63.9882927,49.3587931 C64.3404878,49.3587931 64.6926829,49.3587931 65.044878,49.3587931 C65.1066667,49.1743966 64.9213008,49.0078448 64.7421138,48.9305172 C64.5629268,48.8531897 64.3404878,48.7996552 64.2539837,48.6271552 C64.0686179,48.2821552 64.5443902,47.8003448 64.3404878,47.502931 C64.1365854,47.2055172 63.704065,47.5267241 63.3889431,47.675431 Z" id="Path"></path>
                    <path d="M37.4377236,62.1237931 C37.3994933,62.135235 37.3585555,62.135235 37.3203252,62.1237931 C37.2461789,62.1237931 37.1905691,62.0524138 37.1596748,61.9869828 C36.9928455,61.6300862 37.0917073,61.1661207 36.8260163,60.8627586 C36.5669962,61.1735988 36.3586468,61.520592 36.2081301,61.8918103 L35.2009756,61.5943966 C35.1075248,61.9729759 35.1765788,62.3718375 35.3925203,62.7007759 C35.2166411,62.7735996 35.05715,62.8786527 34.9229268,63.0100862 C34.7844572,63.1443307 34.7366212,63.3423493 34.7993496,63.5216379 C35.0296706,63.5758624 35.2668984,63.5978986 35.5037398,63.587069 C35.4653832,64.0128737 35.4924493,64.4417961 35.584065,64.86 C35.5899699,64.9210748 35.6184773,64.9780729 35.6643902,65.0206034 C35.7485122,65.051007 35.8431474,65.0350638 35.9115447,64.9789655 C36.2602971,64.7754897 36.5461655,64.4859134 36.7395122,64.1402586 L37.1102439,64.9968103 C37.138079,65.0847996 37.1971228,65.1605868 37.2770732,65.2109483 C37.3937728,65.2459849 37.5206723,65.2052636 37.5921951,65.1098276 C37.6519734,65.0096226 37.6878532,64.897873 37.6972358,64.7826724 L37.8393496,63.9677586 C37.8428278,63.9241761 37.8600771,63.8826621 37.8887805,63.8487931 C37.9306259,63.8167283 37.9838828,63.8017747 38.0370732,63.8071552 C38.3892683,63.8071552 38.7414634,63.8071552 39.0936585,63.8071552 C39.1554472,63.6227586 38.9700813,63.4562069 38.7908943,63.3788793 C38.6117073,63.3015517 38.3892683,63.242069 38.3027642,63.0755172 C38.1173984,62.7305172 38.5931707,62.2487069 38.3892683,61.9512931 C38.1853659,61.6538793 37.7466667,61.9512931 37.4377236,62.1237931 Z" id="Path"></path>
                    <path d="M12.3577236,11.6110345 C12.32169,11.6308714 12.2816578,11.6430414 12.2403252,11.6467241 C12.1625605,11.633133 12.0999589,11.5775035 12.0796748,11.5039655 C11.9066667,11.147069 12.0055285,10.6831034 11.7398374,10.3856897 C11.4795973,10.6957246 11.2711341,11.0429072 11.1219512,11.4147414 L10.1209756,11.1173276 C10.0235299,11.4950275 10.0904844,11.8946539 10.3063415,12.2237069 C10.1300737,12.2958491 9.97045214,12.4009881 9.83674797,12.5330172 C9.69827833,12.6672617 9.65044232,12.8652804 9.71317073,13.044569 C9.94549038,13.099365 10.1848424,13.1214051 10.4237398,13.11 C10.3865355,13.5335841 10.4114961,13.9601018 10.4978862,14.3769828 C10.5020196,14.4415079 10.5332491,14.501636 10.5843902,14.5435345 C10.6585366,14.5851724 10.7512195,14.5435345 10.8253659,14.5018966 C11.1743618,14.2961086 11.4601415,14.0045689 11.6533333,13.6572414 L12.024065,14.5137931 C12.050093,14.6042121 12.109387,14.6824345 12.1908943,14.7338793 C12.3090104,14.7718848 12.438848,14.7277699 12.5060163,14.6268103 C12.5685466,14.5273623 12.606592,14.4154506 12.6172358,14.2996552 L12.7531707,13.4847414 C12.7541379,13.4374958 12.7766695,13.3930579 12.8147663,13.3632593 C12.8528631,13.3334608 12.9026585,13.3213261 12.9508943,13.3300862 C13.3030894,13.3300862 13.6552846,13.3300862 14.0136585,13.3300862 C14.0692683,13.1516379 13.8839024,12.9791379 13.7047154,12.9077586 C13.5255285,12.8363793 13.3092683,12.7709483 13.2165854,12.6043966 C13.0312195,12.2593966 13.5069919,11.7775862 13.3092683,11.4801724 C13.1115447,11.1827586 12.6357724,11.4623276 12.3577236,11.6110345 Z" id="Path"></path>
                    <path d="M25.6917073,40.0616379 C25.6561147,40.0824275 25.6158489,40.0946685 25.5743089,40.0973276 C25.5001626,40.0973276 25.4445528,40.02 25.4136585,39.954569 C25.2406504,39.5976724 25.3395122,39.1337069 25.08,38.8362931 C24.8178648,39.1450712 24.6092195,39.4925571 24.4621138,39.8653448 L23.4611382,39.567931 C23.3655147,39.9464364 23.434711,40.3461204 23.6526829,40.6743103 C23.4745236,40.7463219 23.3128525,40.8514279 23.1769106,40.9836207 C23.0420694,41.1173486 22.9945805,41.3116446 23.0533333,41.4892241 C23.2854394,41.5455301 23.5247217,41.5695669 23.7639024,41.5606034 C23.7266981,41.9841876 23.7516587,42.4107053 23.8380488,42.8275862 C23.8424018,42.8903792 23.8737511,42.9485824 23.9245528,42.9881897 C23.9986992,43.0357759 24.097561,42.9881897 24.1717073,42.9525 C24.5175007,42.7447993 24.8008149,42.4536018 24.9934959,42.1078448 L25.3704065,42.9643966 C25.3944459,43.0541902 25.4544233,43.1311756 25.5372358,43.1785345 C25.6520576,43.2216653 25.782462,43.1789824 25.8461789,43.0774138 C25.9106511,42.9788337 25.9488539,42.8664592 25.9573984,42.7502586 L26.0995122,41.9353448 C26.1008422,41.8941586 26.1160196,41.8545 26.1427642,41.8223276 C26.1849085,41.7908221 26.2379269,41.7759355 26.2910569,41.7806897 C26.643252,41.7806897 27.001626,41.7806897 27.3538211,41.7806897 C27.4156098,41.6022414 27.224065,41.4297414 27.044878,41.3524138 C26.8656911,41.2750862 26.6494309,41.2215517 26.556748,41.0490517 C26.377561,40.7040517 26.8533333,40.2281897 26.6494309,39.9307759 C26.4455285,39.6333621 26.0006504,39.912931 25.6917073,40.0616379 Z" id="Path"></path>
                    <path d="M15.9908943,28.9740517 C15.952664,28.9854936 15.9117263,28.9854936 15.8734959,28.9740517 C15.7993496,28.9740517 15.7437398,28.9026724 15.7128455,28.8372414 C15.5398374,28.4803448 15.6386992,28.0163793 15.379187,27.7130172 C15.118358,28.0226624 14.909839,28.3699381 14.7613008,28.742069 L13.7603252,28.4446552 C13.6639635,28.8231341 13.7332086,29.2231001 13.9518699,29.5510345 C13.7749408,29.6252187 13.6136735,29.7300622 13.4760976,29.8603448 C13.3401823,29.9959379 13.2927023,30.1924828 13.3525203,30.3718966 C13.58484,30.4266925 13.824192,30.4487327 14.0630894,30.4373276 C14.0257131,30.8628863 14.0506729,31.2913904 14.1372358,31.7102586 C14.1314776,31.7893148 14.1805696,31.8625553 14.2577674,31.8900801 C14.3349652,31.9176048 14.4217708,31.8928185 14.4708943,31.8292241 C14.8164399,31.6238161 15.0998363,31.3345853 15.2926829,30.9905172 L15.6695935,31.847069 C15.6974286,31.9350582 15.7564724,32.0108454 15.8364228,32.0612069 C15.9527298,32.0983788 16.0803585,32.0541471 16.1453659,31.9541379 C16.2078099,31.8568198 16.2458862,31.7468538 16.2565854,31.632931 L16.3986992,30.812069 C16.3952449,30.7645673 16.4156295,30.7183461 16.4535283,30.6877462 C16.4914271,30.6571464 16.5422558,30.6458692 16.5902439,30.6574138 L17.6530081,30.6574138 C17.7147967,30.4789655 17.523252,30.3124138 17.344065,30.2350862 C17.164878,30.1577586 16.9486179,30.0982759 16.855935,29.9317241 C16.6705691,29.5867241 17.1525203,29.1049138 16.9486179,28.8075 C16.7447154,28.5100862 16.2998374,28.8134483 15.9908943,28.9740517 Z" id="Path"></path>
                    <path d="M57.6611382,31.5853448 C57.6258983,31.6061643 57.5850602,31.6165101 57.5437398,31.6150862 C57.4634146,31.6150862 57.4139837,31.5437069 57.3830894,31.4782759 C57.2100813,31.1213793 57.3089431,30.6574138 57.043252,30.3540517 C56.784232,30.6648919 56.5758825,31.0118851 56.4253659,31.3831034 L55.4243902,31.0856897 C55.3254642,31.4633287 55.3925136,31.8635218 55.6097561,32.192069 C55.4347498,32.2664111 55.2755397,32.3712791 55.1401626,32.5013793 C55.001693,32.6356238 54.953857,32.8336424 55.0165854,33.012931 C55.248905,33.067727 55.4882571,33.0897672 55.7271545,33.0783621 C55.6897782,33.5039208 55.7147379,33.9324249 55.8013008,34.3512931 C55.8070448,34.4137041 55.838129,34.471415 55.8878049,34.5118966 C55.969885,34.5426213 56.0629232,34.5265453 56.1287805,34.4702586 C56.4760445,34.2650084 56.7614848,33.9758658 56.956748,33.6315517 L57.3274797,34.4881034 C57.3553147,34.5760927 57.4143586,34.6518799 57.4943089,34.7022414 C57.612425,34.7402469 57.7422626,34.696132 57.8094309,34.5951724 C57.871875,34.4978543 57.9099513,34.3878883 57.9206504,34.2739655 L58.0565854,33.4531034 C58.0612657,33.4115977 58.0784473,33.3723143 58.1060163,33.3400862 C58.1478617,33.3080214 58.2011186,33.2930678 58.2543089,33.2984483 L59.3170732,33.2984483 C59.3726829,33.12 59.1873171,32.9534483 59.0081301,32.8761207 C58.8289431,32.7987931 58.6126829,32.7393103 58.52,32.5727586 C58.3346341,32.2277586 58.8104065,31.7459483 58.6126829,31.4485345 C58.4149593,31.1511207 57.9700813,31.4366379 57.6611382,31.5853448 Z" id="Path"></path>
                    <path d="M37.4377236,29.4082759 C37.3994933,29.4197178 37.3585555,29.4197178 37.3203252,29.4082759 C37.2461789,29.4082759 37.1905691,29.3368966 37.1596748,29.2714655 C36.9928455,28.914569 37.0917073,28.4506034 36.8260163,28.1472414 C36.5669962,28.4580815 36.3586468,28.8050748 36.2081301,29.1762931 L35.2009756,28.8788793 C35.1075248,29.2574587 35.1765788,29.6563203 35.3925203,29.9852586 C35.2166411,30.0580823 35.05715,30.1631354 34.9229268,30.294569 C34.7844572,30.4288135 34.7366212,30.6268321 34.7993496,30.8061207 C35.0298844,30.8595167 35.2667088,30.8835153 35.5037398,30.8775 C35.4655424,31.301331 35.4926098,31.7282695 35.584065,32.1444828 C35.5899699,32.2055575 35.6184773,32.2625557 35.6643902,32.3050862 C35.7385366,32.3526724 35.8373984,32.3050862 35.9115447,32.2634483 C36.2602971,32.0599725 36.5461655,31.7703962 36.7395122,31.4247414 L37.1102439,32.2812931 C37.1360337,32.3702669 37.1955683,32.4466841 37.2770732,32.495431 C37.3937728,32.5304677 37.5206723,32.4897464 37.5921951,32.3943103 C37.6519734,32.2941054 37.6878532,32.1823557 37.6972358,32.0671552 L37.8393496,31.2522414 C37.8428278,31.2086589 37.8600771,31.1671448 37.8887805,31.1332759 C37.9319183,31.1036924 37.9841788,31.0890186 38.0370732,31.0916379 C38.3892683,31.0916379 38.7414634,31.0916379 39.0936585,31.0916379 C39.1554472,30.9072414 38.9700813,30.7406897 38.7908943,30.6633621 C38.6117073,30.5860345 38.3892683,30.5325 38.3027642,30.36 C38.1173984,30.015 38.5931707,29.5331897 38.3892683,29.2357759 C38.1853659,28.9383621 37.7466667,29.2536207 37.4377236,29.4082759 Z" id="Path"></path>
                    <path d="M31.0982114,32.0552586 C31.0611543,32.0777471 31.0184305,32.0900859 30.9746341,32.0909483 C30.9004878,32.0909483 30.8510569,32.019569 30.8139837,31.9541379 C30.6471545,31.5972414 30.7460163,31.1332759 30.4803252,30.8299138 C30.2213051,31.140754 30.0129557,31.4877472 29.862439,31.8589655 L28.8552846,31.5615517 C28.7618338,31.9401311 28.8308877,32.3389927 29.0468293,32.667931 C28.871823,32.7422731 28.7126129,32.8471411 28.5772358,32.9772414 C28.4387661,33.1114859 28.3909301,33.3095045 28.4536585,33.4887931 C28.6839795,33.5430176 28.9212073,33.5650537 29.1580488,33.5542241 C29.1229501,33.9800637 29.1499879,34.4085371 29.238374,34.8271552 C29.244118,34.8895662 29.2752021,34.947277 29.324878,34.9877586 C29.4069582,35.0184833 29.4999963,35.0024074 29.5658537,34.9461207 C29.9131177,34.7408705 30.1985579,34.4517279 30.3938211,34.1074138 L30.7645528,34.9639655 C30.7923879,35.0519548 30.8514318,35.127742 30.9313821,35.1781034 C31.0494982,35.216109 31.1793358,35.1719941 31.2465041,35.0710345 C31.3063611,34.9725693 31.3442399,34.8631736 31.3577236,34.7498276 L31.4936585,33.9289655 C31.4946257,33.8817199 31.5171573,33.837282 31.5552541,33.8074835 C31.5933509,33.777685 31.6431463,33.7655503 31.6913821,33.7743103 C32.0435772,33.7743103 32.3957724,33.7743103 32.7541463,33.7743103 C32.8097561,33.5958621 32.6243902,33.4293103 32.4452033,33.3519828 C32.2660163,33.2746552 32.0497561,33.2151724 31.9570732,33.0486207 C31.7717073,32.7036207 32.2474797,32.2218103 32.0435772,31.9243966 C31.8396748,31.6269828 31.4071545,31.9125 31.0982114,32.0552586 Z" id="Path"></path>
                    <path d="M25.1788618,15.977069 C25.1432692,15.9978586 25.1030034,16.0100996 25.0614634,16.0127586 C24.9873171,16.0127586 24.9317073,15.935431 24.900813,15.87 C24.7339837,15.5131034 24.8328455,15.0491379 24.5671545,14.7517241 C24.3055492,15.0608544 24.0969555,15.4082544 23.9492683,15.7807759 L22.9421138,15.4774138 C22.848663,15.8559932 22.917717,16.2548548 23.1336585,16.5837931 C22.958993,16.6587235 22.7998883,16.7635221 22.664065,16.8931034 C22.5268911,17.0280348 22.479237,17.2253005 22.5404878,17.4046552 C22.7710226,17.4580512 23.007847,17.4820498 23.244878,17.4760345 C23.2066806,17.8998655 23.233748,18.326804 23.3252033,18.7430172 C23.3299687,18.8043911 23.3586621,18.8617611 23.4055285,18.9036207 C23.4796748,18.9512069 23.5785366,18.9036207 23.6526829,18.867931 C24.0003784,18.6606051 24.2857883,18.3694427 24.4806504,18.0232759 L24.8513821,18.8798276 C24.8771719,18.9688014 24.9367066,19.0452186 25.0182114,19.0939655 C25.1348902,19.1354146 25.2658239,19.0933988 25.3333333,18.9928448 C25.3931117,18.8926399 25.4289914,18.7808902 25.438374,18.6656897 L25.5804878,17.8507759 C25.583966,17.8071933 25.6012153,17.7656793 25.6299187,17.7318103 C25.6723809,17.701257 25.7258093,17.6883984 25.7782114,17.6961207 C26.1304065,17.6961207 26.4826016,17.6961207 26.8347967,17.6961207 C26.8965854,17.5117241 26.7112195,17.3451724 26.5320325,17.2678448 C26.3528455,17.1905172 26.1304065,17.1369828 26.0439024,16.9644828 C25.8585366,16.6194828 26.3343089,16.1436207 26.1304065,15.8462069 C25.9265041,15.5487931 25.4878049,15.8283621 25.1788618,15.977069 Z" id="Path"></path>
                    <path d="M36.8321951,36.9625862 C36.7969552,36.9834056 36.7561171,36.9937515 36.7147967,36.9923276 C36.6344715,36.9923276 36.5850407,36.9209483 36.5541463,36.8555172 C36.3811382,36.4986207 36.48,36.0346552 36.2143089,35.7312931 C35.9539309,36.0434191 35.7454849,36.3925799 35.5964228,36.7662931 L34.5954472,36.462931 C34.4994536,36.8406881 34.5663158,37.2397636 34.780813,37.5693103 C34.606604,37.6450249 34.4476366,37.749733 34.3112195,37.8786207 C34.1727499,38.0128652 34.1249139,38.2108838 34.1876423,38.3901724 C34.4202661,38.4436132 34.6591384,38.4676088 34.8982114,38.4615517 C34.861007,38.8851359 34.8859677,39.3116536 34.9723577,39.7285345 C34.9781017,39.7909455 35.0091859,39.8486564 35.0588618,39.8891379 C35.1330081,39.9367241 35.2256911,39.8891379 35.2998374,39.8534483 C35.6475328,39.6461223 35.9329428,39.3549599 36.1278049,39.0087931 L36.4985366,39.8653448 C36.5243264,39.9543186 36.583861,40.0307358 36.6653659,40.0794828 C36.7820773,40.1165174 36.9102008,40.0754034 36.9804878,39.9783621 C37.0422418,39.8785725 37.0802278,39.7668359 37.0917073,39.6512069 L37.2276423,38.8362931 C37.2336259,38.7933077 37.2506119,38.7524276 37.2770732,38.7173276 C37.3202109,38.6877441 37.3724715,38.6730703 37.4253659,38.6756897 C37.777561,38.6756897 38.135935,38.6756897 38.4881301,38.6756897 C38.5499187,38.4912931 38.358374,38.3247414 38.179187,38.2474138 C38,38.1700862 37.7837398,38.1165517 37.6910569,37.9440517 C37.5056911,37.5990517 37.9876423,37.1172414 37.7837398,36.8198276 C37.5798374,36.5224138 37.1411382,36.8138793 36.8321951,36.9625862 Z" id="Path"></path>
                </g>
            </g>
        </g>
    </g>
</svg>